<svg width="16" height="14" viewBox="0 0 16 14" fill="none" xmlns="http://www.w3.org/2000/svg">
<path d="M8.00097 1.30237L2.82031 5.54011V12.8748C2.82031 13.2681 3.13917 13.587 3.53255 13.587H12.4693C12.8627 13.587 13.1816 13.2681 13.1816 12.8748V5.54011L8.00097 1.30237Z" fill="#016DCD"/>
<path d="M11.5171 13.5889H4.78516V8.23799C4.78516 8.08908 4.90585 7.96838 5.05476 7.96838H11.2474C11.3963 7.96838 11.517 8.08908 11.517 8.23799V13.5889H11.5171Z" fill="white"/>
<path d="M12.4665 13.714H3.52969C3.06746 13.714 2.69141 13.338 2.69141 12.8758V5.54111C2.69141 5.50331 2.70841 5.46753 2.73758 5.4436L7.91823 1.20586C7.96459 1.16787 8.03143 1.16787 8.07779 1.20586L13.2584 5.4436C13.2877 5.46753 13.3046 5.50331 13.3046 5.54111V12.8758C13.3047 13.338 12.9287 13.714 12.4665 13.714ZM2.94343 5.60082V12.8758C2.94343 13.1991 3.20649 13.4621 3.52976 13.4621H12.4665C12.7898 13.4621 13.0528 13.1991 13.0528 12.8758V5.60082L7.9981 1.46614L2.94343 5.60082Z" fill="#016DCD"/>
<path d="M15.071 7.51292C14.8925 7.51292 14.713 7.45364 14.5642 7.33182L7.9989 1.9615L1.43364 7.33188C1.09109 7.61207 0.586152 7.56149 0.306093 7.219C0.0259077 6.87646 0.0764267 6.37164 0.418973 6.09146L7.49157 0.306084C7.78668 0.0646386 8.21112 0.0646386 8.50623 0.306084L15.5788 6.09146C15.9214 6.37164 15.9719 6.87646 15.6917 7.219C15.5333 7.41264 15.3031 7.51292 15.071 7.51292Z" fill="#016DCD"/>
<path d="M0.929114 7.63918C0.897871 7.63918 0.866501 7.6376 0.835005 7.63445C0.58852 7.60976 0.366476 7.49058 0.209691 7.2989C0.0528428 7.10721 -0.0199752 6.8659 0.0047174 6.61941C0.02941 6.37293 0.148589 6.15088 0.340272 5.99403L7.41293 0.208722C7.75315 -0.0695739 8.24687 -0.0695739 8.58715 0.208722L15.6597 5.9941C15.8514 6.15088 15.9707 6.37299 15.9953 6.61941C16.0199 6.86583 15.9472 7.10715 15.7903 7.2989C15.6134 7.51508 15.3517 7.63905 15.0722 7.63911C14.8591 7.63911 14.6508 7.56466 14.4855 7.42954L8.00001 2.12441L1.51449 7.42954C1.34725 7.5663 1.14228 7.63918 0.929114 7.63918ZM8.00001 0.251682C7.8482 0.251682 7.69633 0.302327 7.57249 0.40368L0.499892 6.18912C0.36024 6.30332 0.273438 6.46508 0.255486 6.64454C0.237533 6.82401 0.290509 6.99975 0.404712 7.1394C0.518915 7.27899 0.680614 7.36579 0.860076 7.38375C1.03929 7.40145 1.21535 7.34866 1.35487 7.23452L7.9202 1.86413C7.96656 1.82615 8.03339 1.82615 8.07976 1.86413L14.6451 7.23452C14.7653 7.33298 14.917 7.38715 15.0721 7.38715C15.2758 7.38715 15.4665 7.29682 15.5953 7.13934C15.7095 6.99975 15.7625 6.82401 15.7445 6.64454C15.7266 6.46508 15.6398 6.30332 15.5001 6.18918L8.42753 0.40368C8.30369 0.30239 8.15182 0.251682 8.00001 0.251682Z" fill="#016DCD"/>
<path d="M11.5181 13.7147H4.78614C4.7166 13.7147 4.66016 13.6583 4.66016 13.5887V12.652C4.66016 12.5824 4.7166 12.526 4.78614 12.526H11.5181C11.5876 12.526 11.6441 12.5824 11.6441 12.652V13.5887C11.6441 13.6583 11.5877 13.7147 11.5181 13.7147ZM4.91212 13.4627H11.3921V12.778H4.91212V13.4627Z" fill="#016DCD"/>
<path d="M11.5181 12.7773H4.78614C4.7166 12.7773 4.66016 12.7208 4.66016 12.6513V11.7145C4.66016 11.6449 4.7166 11.5885 4.78614 11.5885H11.5181C11.5876 11.5885 11.6441 11.6449 11.6441 11.7145V12.6513C11.6441 12.7208 11.5877 12.7773 11.5181 12.7773ZM4.91212 12.5253H11.3921V11.8405H4.91212V12.5253Z" fill="#016DCD"/>
<path d="M11.5181 11.8426H4.78614C4.7166 11.8426 4.66016 11.7862 4.66016 11.7167V10.7799C4.66016 10.7104 4.7166 10.6539 4.78614 10.6539H11.5181C11.5876 10.6539 11.6441 10.7104 11.6441 10.7799V11.7167C11.6441 11.7862 11.5877 11.8426 11.5181 11.8426ZM4.91212 11.5907H11.3921V10.9059H4.91212V11.5907Z" fill="#016DCD"/>
<path d="M11.5181 10.9051H4.78614C4.7166 10.9051 4.66016 10.8487 4.66016 10.7792V9.84241C4.66016 9.77287 4.7166 9.71643 4.78614 9.71643H11.5181C11.5876 9.71643 11.6441 9.77287 11.6441 9.84241V10.7792C11.6441 10.8487 11.5877 10.9051 11.5181 10.9051ZM4.91212 10.6532H11.3921V9.9684H4.91212V10.6532Z" fill="#016DCD"/>
<path d="M11.5181 9.9677H4.78614C4.7166 9.9677 4.66016 9.91126 4.66016 9.84172V8.90491C4.66016 8.83537 4.7166 8.77893 4.78614 8.77893H11.5181C11.5876 8.77893 11.6441 8.83537 11.6441 8.90491V9.84172C11.6441 9.91126 11.5877 9.9677 11.5181 9.9677ZM4.91212 9.71574H11.3921V9.0309H4.91212V9.71574Z" fill="#016DCD"/>
<path d="M11.5181 9.03112H4.78614C4.7166 9.03112 4.66016 8.97468 4.66016 8.90513V8.23799C4.66016 8.01985 4.8376 7.84241 5.05574 7.84241H11.2485C11.4666 7.84241 11.6441 8.01985 11.6441 8.23799V8.90513C11.6441 8.97474 11.5877 9.03112 11.5181 9.03112ZM4.91212 8.77915H11.3921V8.23799C11.3921 8.15881 11.3277 8.09437 11.2485 8.09437H5.05574C4.9765 8.09437 4.91212 8.15881 4.91212 8.23799V8.77915Z" fill="#016DCD"/>
</svg>
