<svg width="16" height="16" viewBox="0 0 16 16" fill="none" xmlns="http://www.w3.org/2000/svg">
<g clip-path="url(#clip0_40007032_42351)">
<path d="M8.00097 2.44348L2.82031 6.68122V14.0159C2.82031 14.4092 3.13917 14.7281 3.53255 14.7281H12.4693C12.8627 14.7281 13.1816 14.4092 13.1816 14.0159V6.68122L8.00097 2.44348Z" fill="#404040"/>
<path d="M11.5171 14.73H4.78516V9.3791C4.78516 9.23019 4.90585 9.1095 5.05476 9.1095H11.2474C11.3963 9.1095 11.517 9.23019 11.517 9.3791V14.73H11.5171Z" fill="white"/>
<path d="M12.4665 14.8552H3.52969C3.06746 14.8552 2.69141 14.4791 2.69141 14.0169V6.68222C2.69141 6.64442 2.70841 6.60865 2.73758 6.58471L7.91823 2.34697C7.96459 2.30899 8.03143 2.30899 8.07779 2.34697L13.2584 6.58471C13.2877 6.60865 13.3046 6.64442 13.3046 6.68222V14.0169C13.3047 14.4791 12.9287 14.8552 12.4665 14.8552ZM2.94343 6.74194V14.0169C2.94343 14.3402 3.20649 14.6032 3.52976 14.6032H12.4665C12.7898 14.6032 13.0528 14.3402 13.0528 14.0169V6.74194L7.9981 2.60725L2.94343 6.74194Z" fill="#404040"/>
<path d="M15.071 8.65403C14.8925 8.65403 14.713 8.59476 14.5642 8.47293L7.9989 3.10261L1.43364 8.473C1.09109 8.75318 0.586152 8.7026 0.306093 8.36012C0.0259077 8.01757 0.0764267 7.51276 0.418973 7.23257L7.49157 1.4472C7.78668 1.20575 8.21112 1.20575 8.50623 1.4472L15.5788 7.23257C15.9214 7.51276 15.9719 8.01757 15.6917 8.36012C15.5333 8.55375 15.3031 8.65403 15.071 8.65403Z" fill="#404040"/>
<path d="M0.929114 8.78029C0.897871 8.78029 0.866501 8.77872 0.835005 8.77557C0.58852 8.75087 0.366476 8.63169 0.209691 8.44001C0.0528428 8.24833 -0.0199752 8.00701 0.0047174 7.76052C0.02941 7.51404 0.148589 7.29199 0.340272 7.13515L7.41293 1.34984C7.75315 1.07154 8.24687 1.07154 8.58715 1.34984L15.6597 7.13521C15.8514 7.29199 15.9707 7.5141 15.9953 7.76052C16.0199 8.00695 15.9472 8.24827 15.7903 8.44001C15.6134 8.6562 15.3517 8.78016 15.0722 8.78023C14.8591 8.78023 14.6508 8.70577 14.4855 8.57066L8.00001 3.26553L1.51449 8.57066C1.34725 8.70741 1.14228 8.78029 0.929114 8.78029ZM8.00001 1.3928C7.8482 1.3928 7.69633 1.44344 7.57249 1.54479L0.499892 7.33023C0.36024 7.44443 0.273438 7.60619 0.255486 7.78566C0.237533 7.96512 0.290509 8.14087 0.404712 8.28052C0.518915 8.42011 0.680614 8.50691 0.860076 8.52486C1.03929 8.54256 1.21535 8.48977 1.35487 8.37563L7.9202 3.00525C7.96656 2.96726 8.03339 2.96726 8.07976 3.00525L14.6451 8.37563C14.7653 8.47409 14.917 8.52826 15.0721 8.52826C15.2758 8.52826 15.4665 8.43793 15.5953 8.28045C15.7095 8.14087 15.7625 7.96512 15.7445 7.78566C15.7266 7.60619 15.6398 7.44443 15.5001 7.33029L8.42753 1.54479C8.30369 1.4435 8.15182 1.3928 8.00001 1.3928Z" fill="#404040"/>
<path d="M11.5181 14.8558H4.78614C4.7166 14.8558 4.66016 14.7994 4.66016 14.7298V13.7931C4.66016 13.7236 4.7166 13.6671 4.78614 13.6671H11.5181C11.5876 13.6671 11.6441 13.7236 11.6441 13.7931V14.7298C11.6441 14.7994 11.5877 14.8558 11.5181 14.8558ZM4.91212 14.6039H11.3921V13.9191H4.91212V14.6039Z" fill="#404040"/>
<path d="M11.5181 13.9184H4.78614C4.7166 13.9184 4.66016 13.8619 4.66016 13.7924V12.8556C4.66016 12.7861 4.7166 12.7296 4.78614 12.7296H11.5181C11.5876 12.7296 11.6441 12.7861 11.6441 12.8556V13.7924C11.6441 13.8619 11.5877 13.9184 11.5181 13.9184ZM4.91212 13.6664H11.3921V12.9816H4.91212V13.6664Z" fill="#404040"/>
<path d="M11.5181 12.9838H4.78614C4.7166 12.9838 4.66016 12.9273 4.66016 12.8578V11.921C4.66016 11.8515 4.7166 11.795 4.78614 11.795H11.5181C11.5876 11.795 11.6441 11.8515 11.6441 11.921V12.8578C11.6441 12.9273 11.5877 12.9838 11.5181 12.9838ZM4.91212 12.7318H11.3921V12.047H4.91212V12.7318Z" fill="#404040"/>
<path d="M11.5181 12.0463H4.78614C4.7166 12.0463 4.66016 11.9898 4.66016 11.9203V10.9835C4.66016 10.914 4.7166 10.8575 4.78614 10.8575H11.5181C11.5876 10.8575 11.6441 10.914 11.6441 10.9835V11.9203C11.6441 11.9898 11.5877 12.0463 11.5181 12.0463ZM4.91212 11.7943H11.3921V11.1095H4.91212V11.7943Z" fill="#404040"/>
<path d="M11.5181 11.1088H4.78614C4.7166 11.1088 4.66016 11.0524 4.66016 10.9828V10.046C4.66016 9.97648 4.7166 9.92004 4.78614 9.92004H11.5181C11.5876 9.92004 11.6441 9.97648 11.6441 10.046V10.9828C11.6441 11.0524 11.5877 11.1088 11.5181 11.1088ZM4.91212 10.8569H11.3921V10.172H4.91212V10.8569Z" fill="#404040"/>
<path d="M11.5181 10.1722H4.78614C4.7166 10.1722 4.66016 10.1158 4.66016 10.0462V9.37911C4.66016 9.16097 4.8376 8.98352 5.05574 8.98352H11.2485C11.4666 8.98352 11.6441 9.16097 11.6441 9.37911V10.0462C11.6441 10.1159 11.5877 10.1722 11.5181 10.1722ZM4.91212 9.92026H11.3921V9.37911C11.3921 9.29993 11.3277 9.23549 11.2485 9.23549H5.05574C4.9765 9.23549 4.91212 9.29993 4.91212 9.37911V9.92026Z" fill="#404040"/>
</g>
<defs>
<clipPath id="clip0_40007032_42351">
<rect width="16" height="16" fill="white"/>
</clipPath>
</defs>
</svg>
