<svg width="16" height="16" viewBox="0 0 16 16" fill="none" xmlns="http://www.w3.org/2000/svg">
<g clip-path="url(#clip0_40007016_2974)">
<path d="M15 4V12.25L8 15.25V7L15 4Z" fill="white"/>
<path d="M3.5 5.0715V7.3465C3.50002 7.39292 3.51297 7.43841 3.53739 7.47788C3.56181 7.51736 3.59673 7.54925 3.63825 7.57L4.63825 8.07C4.67643 8.08908 4.71886 8.09807 4.7615 8.0961C4.80414 8.09414 4.84556 8.08129 4.88183 8.05879C4.91809 8.03628 4.94799 8.00486 4.96868 7.96753C4.98937 7.93019 5.00015 7.88818 5 7.8455V5.75L5.04225 5.73225L8 7V15.25L1 12.25V4L3.5 5.0715Z" fill="white"/>
<path d="M5.04225 5.73225L12.2357 2.7165L10.6753 1.992L3.5 5V5.0715L1 4L8 0.75L15 4L8 7L5.04225 5.73225Z" fill="#404040"/>
<path d="M0.8625 3.79107C0.86925 3.78657 0.87675 3.78432 0.88375 3.78057C0.889328 3.77652 0.89527 3.77301 0.9015 3.77007L7.9015 0.520067C7.93234 0.506828 7.96556 0.5 7.99912 0.5C8.03269 0.5 8.06591 0.506828 8.09675 0.520067H8.0985L15.0985 3.77007C15.1049 3.77309 15.111 3.77669 15.1168 3.78082C15.1235 3.78457 15.131 3.78682 15.1375 3.79107C15.1721 3.81383 15.2004 3.84482 15.2201 3.88125C15.2397 3.91769 15.25 3.95843 15.25 3.99982V12.2498C15.25 12.2987 15.2356 12.3466 15.2087 12.3874C15.1818 12.4283 15.1435 12.4603 15.0985 12.4796L8.0985 15.4796C8.06738 15.4929 8.03387 15.4998 8 15.4998C7.96695 15.4991 7.93439 15.4917 7.90425 15.4781L7.9015 15.4796L0.9015 12.4796C0.856539 12.4603 0.81822 12.4283 0.791291 12.3874C0.764362 12.3466 0.750006 12.2987 0.75 12.2498V3.99982C0.750007 3.95843 0.760289 3.91769 0.779924 3.88125C0.79956 3.84482 0.827934 3.81383 0.8625 3.79107ZM8 1.02482L1.613 3.99057L3.41675 4.76357L10.0565 1.98007L8 1.02482ZM4.75 5.87882L3.75 5.44982V7.34482L4.75 7.84482V5.87882ZM5.04325 5.46057L11.617 2.70457L10.6702 2.26507L4.05625 5.03757L5.04325 5.46057ZM8.25 14.8706L14.75 12.0851V4.37907L8.25 7.16457V14.8706ZM8 6.72782L14.387 3.99057L12.2308 2.99057L5.68275 5.73482L8 6.72782ZM1.25 12.0851L7.75 14.8706V7.16457L5.25 6.09332V8.24982C5.25023 8.29254 5.23951 8.33461 5.21886 8.37202C5.19821 8.40942 5.16832 8.44091 5.13204 8.46347C5.09576 8.48604 5.0543 8.49893 5.01162 8.50092C4.96895 8.5029 4.92647 8.49392 4.88825 8.47482L3.25 7.65432V5.23607L1.25 4.37907V12.0851Z" fill="#404040"/>
<path d="M12.7476 15.4894L14.9816 12.8804H13.6393V9.85175H11.856V12.8804H10.5137L12.7476 15.4894Z" fill="#27C04B"/>
<path d="M12.7506 15.8428C12.5876 15.8428 12.4342 15.7794 12.3431 15.6771L10.1092 13.0681C10.0181 12.9588 10.0085 12.8213 10.0948 12.7084C10.1811 12.5956 10.3393 12.5251 10.5166 12.5251H11.3795V9.85258C11.3795 9.65866 11.5953 9.5 11.8589 9.5H13.6423C13.9059 9.5 14.1217 9.65866 14.1217 9.85258V12.5286H14.9846C15.1571 12.5286 15.3201 12.5991 15.4064 12.712C15.4927 12.8248 15.4831 12.9623 15.392 13.0716L13.1581 15.6806C13.067 15.7794 12.9136 15.8428 12.7506 15.8428ZM11.3843 13.2338L12.7506 14.8274L14.1169 13.2338H13.6423C13.3786 13.2338 13.1629 13.0751 13.1629 12.8812V10.2052H12.3383V12.8812C12.3383 13.0751 12.1226 13.2338 11.8589 13.2338H11.3843Z" fill="#27C04B"/>
</g>
<defs>
<clipPath id="clip0_40007016_2974">
<rect width="16" height="16" fill="white"/>
</clipPath>
</defs>
</svg>
