<svg width="20" height="19" viewBox="0 0 20 19" fill="none" xmlns="http://www.w3.org/2000/svg">
<path d="M7.79918 17.255C6.99123 17.9587 5.99183 18.407 4.92794 18.5429C3.38909 18.7156 1.74226 18.1659 0.0319038 16.9096C-0.0776733 15.3761 0.0954268 14.0676 0.544852 13.0173C0.81664 12.3612 1.23231 11.7742 1.76132 11.2994C2.29034 10.8246 2.91926 10.474 3.6019 10.2734C3.38605 11.7416 3.68612 13.2391 4.45119 14.5116C5.21626 15.7842 6.39918 16.7535 7.79918 17.255Z" fill="white"/>
<path d="M10.8954 16.7938C10.6014 16.8424 10.304 16.8673 10.006 16.8683C9.26114 16.8739 8.52244 16.733 7.83219 16.4535C7.14195 16.174 6.51372 15.7616 5.98345 15.2396C5.45318 14.7177 5.03128 14.0966 4.74188 13.4119C4.45249 12.7272 4.30128 11.9922 4.29692 11.2491C4.2954 10.8679 4.33157 10.4874 4.40491 10.1133C4.46843 10.1133 4.53037 10.099 4.59389 10.0943C5.43816 10.0262 6.28588 10.174 7.057 10.5236L7.8955 10.9038C8.31795 11.0973 8.69625 11.3749 9.00715 11.7196C9.4536 12.2112 9.74569 12.8226 9.84724 13.4781L10.006 14.5332C10.1377 15.3413 10.4409 16.112 10.8954 16.7938Z" fill="white"/>
<path d="M13.8581 7.09005C13.5433 7.96278 13.0097 8.74052 12.3081 9.3491L12.0572 9.56772C11.4036 10.1345 10.5726 10.4566 9.70684 10.4786C9.14093 10.4916 8.57946 10.3762 8.06477 10.1412L7.37237 9.82436C6.51116 9.43705 5.56758 9.26729 4.625 9.33009C4.9397 8.44229 5.47135 7.64679 6.17183 7.01555C6.87231 6.38432 7.71952 5.93728 8.6368 5.71489C9.55407 5.4925 10.5125 5.50178 11.4252 5.74189C12.338 5.982 13.1764 6.44537 13.8644 7.09005H13.8581Z" fill="white"/>
<path d="M14.1672 5.37515C14.1634 5.6761 14.1331 5.97614 14.0767 6.2718C12.9249 5.31804 11.4757 4.7948 9.97882 4.7922C8.48192 4.78959 7.03095 5.3078 5.87584 6.25755C5.2962 2.97352 7.72754 1.05349 9.97784 0C11.5199 0.698627 12.6506 1.57152 13.343 2.5949C13.9013 3.41339 14.1894 4.38539 14.1672 5.37515Z" fill="white"/>
<path d="M15.6416 11.1787C15.6546 12.4555 15.2293 13.6982 14.4362 14.7004C13.73 15.5943 12.7714 16.2565 11.6841 16.6014C11.207 15.9565 10.8922 15.2068 10.7662 14.4152L10.655 13.734C10.5891 13.3126 10.6095 12.8821 10.7151 12.4688C10.8208 12.0554 11.0094 11.6677 11.2696 11.3292C11.3981 11.1623 11.5428 11.0084 11.7016 10.8698L12.7989 9.9193C13.4971 9.31243 14.051 8.55804 14.4204 7.71094C15.2046 8.69909 15.633 9.92156 15.6368 11.1819L15.6416 11.1787Z" fill="white"/>
<path d="M19.9794 16.7906C18.7502 17.7174 17.5576 18.2861 16.4285 18.4825C15.5236 18.6508 14.5892 18.5539 13.7383 18.2037C13.1802 17.9716 12.6702 17.638 12.2344 17.2199C13.3417 16.8021 14.3132 16.0899 15.0437 15.1605C15.9384 14.0208 16.4203 12.6127 16.411 11.1652C16.4084 10.8324 16.3803 10.5003 16.3268 10.1719C19.5824 11.2095 20.1271 14.2939 19.9794 16.7906Z" fill="white"/>
</svg>
