<svg width="141" height="36" viewBox="0 0 141 36" fill="none" xmlns="http://www.w3.org/2000/svg">
<g clip-path="url(#clip0_40003311_1944)">
<path d="M48.8684 18.7717C48.7898 18.7717 48.7191 18.7482 48.6562 18.701C48.6091 18.6382 48.5855 18.5674 48.5855 18.4889V2.55499C48.5855 2.47642 48.6091 2.41356 48.6562 2.36642C48.7191 2.30356 48.7898 2.27213 48.8684 2.27213H51.6262C51.7047 2.27213 51.7676 2.30356 51.8147 2.36642C51.8776 2.41356 51.909 2.47642 51.909 2.55499V15.8018C51.909 15.8804 51.9483 15.9197 52.0269 15.9197H59.7345C59.8131 15.9197 59.876 15.9511 59.9231 16.0139C59.986 16.0611 60.0174 16.1239 60.0174 16.2025V18.4889C60.0174 18.5674 59.986 18.6382 59.9231 18.701C59.876 18.7482 59.8131 18.7717 59.7345 18.7717H48.8684ZM66.6942 6.46775C67.7156 6.46775 68.627 6.64846 69.4284 7.00988C70.2298 7.35558 70.8505 7.83486 71.2905 8.4477C71.7462 9.06054 71.9741 9.74409 71.9741 10.4984V18.4889C71.9741 18.5674 71.9426 18.6382 71.8798 18.701C71.8326 18.7482 71.7698 18.7717 71.6912 18.7717H68.9334C68.8549 18.7717 68.7841 18.7482 68.7213 18.701C68.6741 18.6382 68.6506 18.5674 68.6506 18.4889V17.711C68.6506 17.6639 68.6349 17.6325 68.6034 17.6168C68.572 17.601 68.5406 17.6168 68.5092 17.6639C67.8492 18.5282 66.7885 18.9603 65.3271 18.9603C64.1014 18.9603 63.1114 18.6617 62.3572 18.0646C61.6029 17.4675 61.2258 16.5875 61.2258 15.4247C61.2258 14.2147 61.65 13.2797 62.4986 12.6197C63.3471 11.944 64.5571 11.6062 66.1285 11.6062H68.5327C68.6113 11.6062 68.6506 11.5669 68.6506 11.4883V10.9698C68.6506 10.4512 68.4934 10.0505 68.1792 9.76766C67.8649 9.4691 67.3935 9.31982 66.7649 9.31982C66.2778 9.31982 65.8692 9.40625 65.5392 9.5791C65.2249 9.75195 65.0207 9.99552 64.9264 10.3098C64.8792 10.4826 64.7771 10.5612 64.62 10.5455L61.7679 10.1684C61.5793 10.1369 61.4929 10.0662 61.5086 9.95623C61.5715 9.29625 61.8307 8.69912 62.2864 8.16485C62.7579 7.63057 63.3707 7.21416 64.125 6.91559C64.895 6.61703 65.7514 6.46775 66.6942 6.46775ZM66.2228 16.4854C66.8985 16.4854 67.472 16.3046 67.9435 15.9432C68.4149 15.5818 68.6506 15.1182 68.6506 14.5525V13.704C68.6506 13.6254 68.6113 13.5861 68.5327 13.5861H66.8356C66.1285 13.5861 65.5707 13.7197 65.1621 13.9868C64.7692 14.254 64.5728 14.6311 64.5728 15.1182C64.5728 15.5425 64.7221 15.8804 65.0207 16.1318C65.3192 16.3675 65.7199 16.4854 66.2228 16.4854ZM79.1472 18.9367C78.0943 18.9367 77.1751 18.7874 76.3894 18.4889C75.6037 18.1903 74.9908 17.7739 74.5508 17.2396C74.1266 16.7054 73.9144 16.1004 73.9144 15.4247V15.189C73.9144 15.1104 73.938 15.0475 73.9851 15.0004C74.048 14.9375 74.1187 14.9061 74.1973 14.9061H76.8136C76.8922 14.9061 76.9551 14.9375 77.0022 15.0004C77.0651 15.0475 77.0965 15.1104 77.0965 15.189V15.2125C77.0965 15.5582 77.2851 15.8568 77.6622 16.1082C78.055 16.3439 78.5422 16.4618 79.1236 16.4618C79.6579 16.4618 80.09 16.3596 80.42 16.1554C80.75 15.9354 80.915 15.6682 80.915 15.354C80.915 15.0711 80.7735 14.859 80.4907 14.7175C80.2078 14.5761 79.7443 14.4268 79.1 14.2697C78.3615 14.0811 77.78 13.9004 77.3558 13.7276C76.3501 13.3819 75.5487 12.9576 74.9515 12.4547C74.3544 11.9519 74.0559 11.2291 74.0559 10.2862C74.0559 9.12339 74.5037 8.20413 75.3994 7.52843C76.3108 6.83702 77.5129 6.49132 79.0057 6.49132C80.0114 6.49132 80.8914 6.65631 81.6457 6.98631C82.3999 7.30058 82.9813 7.74843 83.3899 8.32984C83.8142 8.91126 84.0263 9.57124 84.0263 10.3098C84.0263 10.3884 83.9949 10.4591 83.932 10.5219C83.8849 10.5691 83.822 10.5926 83.7435 10.5926H81.2214C81.1428 10.5926 81.0721 10.5691 81.0093 10.5219C80.9621 10.4591 80.9385 10.3884 80.9385 10.3098C80.9385 9.96409 80.7578 9.67338 80.3964 9.43767C80.0507 9.20196 79.5871 9.08411 79.0057 9.08411C78.4872 9.08411 78.0629 9.17839 77.7329 9.36696C77.4029 9.55553 77.2379 9.81481 77.2379 10.1448C77.2379 10.4591 77.3951 10.6948 77.7093 10.8519C78.0393 11.0091 78.5815 11.1741 79.3357 11.3469C79.5086 11.3941 79.705 11.4491 79.925 11.5119C80.145 11.559 80.3807 11.6219 80.6321 11.7005C81.7478 12.0305 82.6278 12.4547 83.2721 12.9733C83.9163 13.4919 84.2385 14.2461 84.2385 15.2361C84.2385 16.3989 83.7749 17.3103 82.8478 17.9703C81.9364 18.6146 80.7028 18.9367 79.1472 18.9367ZM93.077 9.03697C93.077 9.11554 93.0455 9.18625 92.9827 9.24911C92.9355 9.29625 92.8727 9.31982 92.7941 9.31982H90.5313C90.4528 9.31982 90.4135 9.3591 90.4135 9.43767V14.4347C90.4135 14.9533 90.5156 15.3382 90.7199 15.5897C90.9399 15.8411 91.2856 15.9668 91.757 15.9668H92.5348C92.6134 15.9668 92.6763 15.9982 92.7234 16.0611C92.7863 16.1082 92.8177 16.1711 92.8177 16.2496V18.4889C92.8177 18.6617 92.7234 18.7639 92.5348 18.7953C91.8749 18.8267 91.4034 18.8424 91.1206 18.8424C89.8163 18.8424 88.8421 18.6303 88.1978 18.206C87.5535 17.766 87.2235 16.9489 87.2078 15.7547V9.43767C87.2078 9.3591 87.1685 9.31982 87.09 9.31982H85.7464C85.6679 9.31982 85.5972 9.29625 85.5343 9.24911C85.4872 9.18625 85.4636 9.11554 85.4636 9.03697V6.93916C85.4636 6.86059 85.4872 6.79774 85.5343 6.7506C85.5972 6.68774 85.6679 6.65631 85.7464 6.65631H87.09C87.1685 6.65631 87.2078 6.61703 87.2078 6.53846V3.73353C87.2078 3.65496 87.2314 3.5921 87.2785 3.54496C87.3414 3.48211 87.4121 3.45068 87.4907 3.45068H90.1306C90.2092 3.45068 90.272 3.48211 90.3192 3.54496C90.382 3.5921 90.4135 3.65496 90.4135 3.73353V6.53846C90.4135 6.61703 90.4528 6.65631 90.5313 6.65631H92.7941C92.8727 6.65631 92.9355 6.68774 92.9827 6.7506C93.0455 6.79774 93.077 6.86059 93.077 6.93916V9.03697ZM110.616 2.4607C110.694 2.33499 110.804 2.27213 110.946 2.27213H113.703C113.782 2.27213 113.845 2.30356 113.892 2.36642C113.955 2.41356 113.986 2.47642 113.986 2.55499V18.4889C113.986 18.5674 113.955 18.6382 113.892 18.701C113.845 18.7482 113.782 18.7717 113.703 18.7717H110.946C110.867 18.7717 110.796 18.7482 110.733 18.701C110.686 18.6382 110.663 18.5674 110.663 18.4889V8.09413C110.663 8.03128 110.647 7.99985 110.616 7.99985C110.584 7.99985 110.553 8.02342 110.521 8.07056L108.023 11.9833C107.944 12.109 107.834 12.1719 107.693 12.1719H106.302C106.161 12.1719 106.051 12.109 105.972 11.9833L103.474 8.07056C103.442 8.02342 103.411 8.00771 103.379 8.02342C103.348 8.02342 103.332 8.05485 103.332 8.11771V18.4889C103.332 18.5674 103.301 18.6382 103.238 18.701C103.191 18.7482 103.128 18.7717 103.049 18.7717H100.291C100.213 18.7717 100.142 18.7482 100.079 18.701C100.032 18.6382 100.009 18.5674 100.009 18.4889V2.55499C100.009 2.47642 100.032 2.41356 100.079 2.36642C100.142 2.30356 100.213 2.27213 100.291 2.27213H103.049C103.191 2.27213 103.301 2.33499 103.379 2.4607L106.915 7.95271C106.962 8.04699 107.009 8.04699 107.056 7.95271L110.616 2.4607ZM118.437 5.2892C117.903 5.2892 117.455 5.11635 117.094 4.77064C116.748 4.40923 116.575 3.96138 116.575 3.42711C116.575 2.87712 116.748 2.42927 117.094 2.08357C117.44 1.73786 117.887 1.56501 118.437 1.56501C118.987 1.56501 119.435 1.73786 119.781 2.08357C120.127 2.42927 120.299 2.87712 120.299 3.42711C120.299 3.96138 120.119 4.40923 119.757 4.77064C119.412 5.11635 118.972 5.2892 118.437 5.2892ZM117.023 18.7717C116.945 18.7717 116.874 18.7482 116.811 18.701C116.764 18.6382 116.74 18.5674 116.74 18.4889V6.91559C116.74 6.83702 116.764 6.77417 116.811 6.72703C116.874 6.66417 116.945 6.63274 117.023 6.63274H119.781C119.859 6.63274 119.922 6.66417 119.969 6.72703C120.032 6.77417 120.064 6.83702 120.064 6.91559V18.4889C120.064 18.5674 120.032 18.6382 119.969 18.701C119.922 18.7482 119.859 18.7717 119.781 18.7717H117.023ZM122.937 18.7717C122.858 18.7717 122.787 18.7482 122.724 18.701C122.677 18.6382 122.654 18.5674 122.654 18.4889V2.55499C122.654 2.47642 122.677 2.41356 122.724 2.36642C122.787 2.30356 122.858 2.27213 122.937 2.27213H125.694C125.773 2.27213 125.836 2.30356 125.883 2.36642C125.946 2.41356 125.977 2.47642 125.977 2.55499V18.4889C125.977 18.5674 125.946 18.6382 125.883 18.701C125.836 18.7482 125.773 18.7717 125.694 18.7717H122.937ZM139.133 11.4648C139.227 12.0619 139.259 12.7297 139.227 13.4683C139.212 13.6569 139.11 13.7511 138.921 13.7511H131.638C131.543 13.7511 131.512 13.7904 131.543 13.869C131.59 14.1833 131.677 14.4975 131.803 14.8118C132.211 15.6918 133.044 16.1318 134.301 16.1318C135.307 16.1161 136.1 15.7075 136.682 14.9061C136.745 14.8118 136.815 14.7647 136.894 14.7647C136.941 14.7647 136.996 14.7961 137.059 14.859L138.756 16.5325C138.835 16.6111 138.874 16.6818 138.874 16.7446C138.874 16.7761 138.842 16.8389 138.78 16.9332C138.261 17.5775 137.593 18.0803 136.776 18.4417C135.959 18.7874 135.063 18.9603 134.089 18.9603C132.738 18.9603 131.59 18.6539 130.648 18.041C129.72 17.4282 129.053 16.5718 128.644 15.4718C128.314 14.6861 128.149 13.6569 128.149 12.384C128.149 11.5198 128.267 10.7576 128.503 10.0977C128.864 8.98197 129.493 8.09413 130.388 7.43415C131.3 6.77417 132.376 6.44418 133.618 6.44418C135.189 6.44418 136.446 6.89988 137.389 7.81128C138.347 8.72269 138.929 9.94052 139.133 11.4648ZM133.641 9.31982C132.651 9.31982 131.999 9.78338 131.685 10.7105C131.622 10.9148 131.567 11.1662 131.52 11.4648C131.52 11.5433 131.559 11.5826 131.638 11.5826H135.715C135.81 11.5826 135.841 11.5433 135.81 11.4648C135.731 11.0091 135.692 10.7891 135.692 10.8048C135.55 10.3334 135.299 9.97195 134.938 9.72052C134.592 9.45339 134.16 9.31982 133.641 9.31982Z" fill="#090A0A"/>
<path d="M23.3084 12.0203C23.2231 12.0141 23.1374 12.0141 23.0521 12.0203H4.19176C3.49363 12.0426 2.8329 12.3411 2.35469 12.8502C1.87647 13.3593 1.61988 14.0374 1.64125 14.7356V14.8027C1.63923 15.4899 1.88883 16.154 2.34295 16.6698C2.56941 16.9346 2.84994 17.1478 3.16568 17.2952C3.48142 17.4425 3.82504 17.5206 4.17345 17.524H23.0521C23.4012 17.5154 23.7451 17.4376 24.064 17.2952C24.3829 17.1528 24.6703 16.9486 24.9098 16.6944C25.1492 16.4402 25.3359 16.141 25.459 15.8142C25.5821 15.4874 25.6392 15.1395 25.627 14.7905V14.7234C25.643 14.0659 25.4149 13.4258 24.9867 12.9266C24.5585 12.4275 23.9606 12.1046 23.3084 12.0203Z" fill="#EE1520"/>
<path d="M50.2717 25.0111V33.3155H48.5754V25.0111H50.2717ZM51.492 33.3155H49.3443V31.8511H51.4127C51.8768 31.8653 52.3374 31.7669 52.7551 31.5643C53.1186 31.3716 53.4067 31.0621 53.5727 30.6857C53.7721 30.2026 53.8657 29.6825 53.8473 29.1602C53.8668 28.6393 53.7709 28.1205 53.5666 27.6409C53.4021 27.2654 53.1164 26.956 52.7551 26.7623C52.3395 26.5597 51.8809 26.4613 51.4188 26.4755H49.3015V25.0111H51.5226C52.2694 24.9928 53.0085 25.165 53.6704 25.5114C54.2641 25.8386 54.7465 26.3358 55.0554 26.9392C55.3733 27.6376 55.5377 28.396 55.5377 29.1633C55.5377 29.9306 55.3733 30.689 55.0554 31.3874C54.7558 31.9893 54.2816 32.4869 53.6948 32.8152C53.0164 33.1703 52.2573 33.3427 51.492 33.3155Z" fill="#090A0A"/>
<path d="M60.7303 33.4375C60.1583 33.4539 59.5922 33.3192 59.0889 33.0469C58.631 32.7925 58.2608 32.4053 58.0272 31.9364C57.7661 31.4079 57.6383 30.8234 57.655 30.2341C57.6422 29.6497 57.7676 29.0706 58.0211 28.5439C58.2523 28.0746 58.6148 27.6824 59.0645 27.4151C59.5429 27.1343 60.0903 26.9927 60.6448 27.0063C61.0337 27.0035 61.42 27.0696 61.7859 27.2015C62.1365 27.337 62.4546 27.5449 62.7194 27.8117C62.9927 28.0902 63.2011 28.4257 63.3296 28.7941C63.4876 29.2405 63.564 29.7117 63.5554 30.1853V30.6551H58.3201V29.5873H62.7316L61.9567 29.868C61.9606 29.5781 61.9089 29.2902 61.8042 29.0198C61.7158 28.7954 61.5629 28.6022 61.3648 28.4646C61.1511 28.3259 60.8993 28.2577 60.6448 28.2693C60.385 28.2615 60.1286 28.3294 59.9065 28.4646C59.7043 28.5997 59.5454 28.7904 59.4489 29.0137C59.3393 29.2593 59.2852 29.5259 59.2903 29.7947V30.533C59.2802 30.8462 59.3428 31.1574 59.4733 31.4422C59.5806 31.6737 59.7577 31.8657 59.9798 31.9914C60.2123 32.1221 60.4758 32.1875 60.7425 32.1805C60.923 32.1819 61.1024 32.153 61.2733 32.0951C61.4266 32.0428 61.5663 31.9571 61.6824 31.8442C61.7985 31.7313 61.888 31.594 61.9445 31.4422L63.4577 31.7229C63.361 32.0612 63.1805 32.3697 62.933 32.6198C62.6731 32.8925 62.3535 33.1014 61.9994 33.23C61.5921 33.3743 61.1623 33.4445 60.7303 33.4375Z" fill="#090A0A"/>
<path d="M67.5275 25.011V33.3154H65.8556V25.011H67.5275Z" fill="#090A0A"/>
<path d="M70.926 26.2739C70.6859 26.2786 70.4536 26.1887 70.2792 26.0237C70.1941 25.9466 70.1262 25.8524 70.0799 25.7473C70.0337 25.6421 70.0101 25.5284 70.0107 25.4136C70.0089 25.2985 70.032 25.1845 70.0783 25.0792C70.1246 24.9739 70.1932 24.8798 70.2792 24.8034C70.3643 24.7195 70.4654 24.6535 70.5765 24.6095C70.6876 24.5655 70.8065 24.5443 70.926 24.5471C71.1669 24.5441 71.3993 24.6362 71.5728 24.8034C71.6601 24.8787 71.7295 24.9726 71.776 25.0781C71.8224 25.1837 71.8447 25.2983 71.8412 25.4136C71.843 25.5286 71.82 25.6427 71.7736 25.748C71.7273 25.8533 71.6588 25.9474 71.5728 26.0237C71.3973 26.1871 71.1657 26.2767 70.926 26.2739ZM70.09 33.3153V27.0854H71.7619V33.3153H70.09Z" fill="#090A0A"/>
<path d="M76.0759 33.3155L73.7816 27.0857H75.5572L76.6067 30.3196C76.7328 30.7264 76.8426 31.1331 76.9362 31.5399C77.0298 31.9467 77.1274 32.3738 77.2291 32.8213H76.8813C76.9728 32.3759 77.0704 31.9487 77.162 31.5399C77.2535 31.1311 77.3633 30.7162 77.4914 30.3196L78.5287 27.0857H80.286L77.9796 33.3155H76.0759Z" fill="#090A0A"/>
<path d="M84.8927 33.4376C84.3207 33.454 83.7546 33.3193 83.2513 33.0471C82.7961 32.7891 82.4269 32.4029 82.1896 31.9365C81.9304 31.4073 81.8027 30.8233 81.8174 30.2342C81.8046 29.6491 81.9323 29.0695 82.1896 28.544C82.4204 28.0763 82.7804 27.6846 83.2269 27.4152C83.7072 27.1336 84.2568 26.992 84.8134 27.0064C85.2022 27.0041 85.5884 27.0702 85.9544 27.2016C86.304 27.3357 86.6204 27.5438 86.8818 27.8118C87.1551 28.0903 87.3635 28.4258 87.492 28.7942C87.6529 29.2399 87.7295 29.7116 87.7178 30.1854V30.6552H82.4886V29.5874H86.9001L86.1191 29.8681C86.125 29.5786 86.0753 29.2907 85.9727 29.0199C85.8843 28.7955 85.7315 28.6023 85.5334 28.4647C85.3169 28.327 85.0636 28.2589 84.8073 28.2694C84.5477 28.2634 84.2916 28.3311 84.069 28.4647C83.8667 28.5998 83.7078 28.7905 83.6113 29.0138C83.5038 29.2598 83.4517 29.5265 83.4588 29.7948V30.5332C83.447 30.8458 83.5076 31.1569 83.6357 31.4423C83.7456 31.672 83.9221 31.8634 84.1422 31.9915C84.3747 32.1222 84.6382 32.1876 84.9049 32.1806C85.0873 32.1815 85.2687 32.1527 85.4418 32.0952C85.5945 32.0422 85.734 31.9569 85.8507 31.845C85.9655 31.732 86.0532 31.5943 86.1069 31.4423L87.6262 31.7291C87.5272 32.0664 87.347 32.3744 87.1015 32.626C86.8394 32.8961 86.5205 33.1045 86.1679 33.2362C85.7581 33.3783 85.3263 33.4465 84.8927 33.4376Z" fill="#090A0A"/>
<path d="M90.0181 33.3156V27.0857H91.635V28.1718H91.7021C91.7989 27.8194 92.0145 27.5112 92.3123 27.2993C92.5794 27.0988 92.9059 26.9936 93.2398 27.0003H93.5143C93.6027 27.0043 93.6906 27.0166 93.7767 27.0369V28.5501C93.6709 28.5206 93.5627 28.5001 93.4533 28.4891C93.313 28.4891 93.1787 28.4891 93.0567 28.4891C92.8167 28.4857 92.5797 28.5423 92.3672 28.6539C92.1695 28.7598 92.0049 28.9181 91.8913 29.1115C91.7764 29.3208 91.7175 29.5562 91.7204 29.7949V33.34L90.0181 33.3156Z" fill="#090A0A"/>
<path d="M95.9431 35.5241L96.3275 34.261L96.535 34.3099C96.7322 34.3708 96.9401 34.3895 97.1451 34.3648C97.3059 34.3443 97.4547 34.2689 97.5661 34.1512C97.6824 34.014 97.7509 33.8426 97.7614 33.6631L97.8041 33.3336L95.4489 27.0854H97.2244L98.2739 30.3193C98.396 30.7282 98.4997 31.137 98.579 31.5397C98.6583 31.9424 98.7499 32.3695 98.8536 32.821H98.4631C98.5668 32.3695 98.6644 31.9424 98.7682 31.5336C98.8719 31.1248 98.9817 30.716 99.116 30.3132L100.208 27.0793H101.965L99.3173 34.0414C99.2028 34.3554 99.0402 34.6498 98.8353 34.9139C98.636 35.1572 98.3834 35.3514 98.097 35.4814C97.7617 35.6239 97.3995 35.6926 97.0353 35.6827C96.8309 35.6825 96.6269 35.6661 96.4251 35.6339C96.2612 35.6133 96.0998 35.5765 95.9431 35.5241Z" fill="#090A0A"/>
<path d="M22.8814 25.3891H12.234C11.9089 25.3877 11.5879 25.3161 11.293 25.1792C10.9982 25.0423 10.7363 24.8433 10.5255 24.5959C10.1004 24.1217 9.86756 23.5059 9.8726 22.8691V22.802C9.85287 22.1556 10.0905 21.5278 10.5332 21.0565C10.9759 20.5852 11.5876 20.3088 12.234 20.2881H22.8814H23.1194C23.722 20.3652 24.2742 20.6643 24.6681 21.127C25.0619 21.5896 25.269 22.1825 25.2489 22.7898V22.8569C25.2611 23.179 25.2094 23.5003 25.0968 23.8022C24.9842 24.1042 24.8129 24.3809 24.5928 24.6163C24.3727 24.8517 24.1081 25.0412 23.8144 25.1739C23.5207 25.3065 23.2036 25.3797 22.8814 25.3891Z" fill="#FF9501"/>
<path d="M5.99192 25.3771C7.39379 25.3771 8.53022 24.2407 8.53022 22.8388C8.53022 21.437 7.39379 20.3005 5.99192 20.3005C4.59005 20.3005 3.45361 21.437 3.45361 22.8388C3.45361 24.2407 4.59005 25.3771 5.99192 25.3771Z" fill="#FF9501"/>
<path d="M27.6529 2.83154H2.39796C1.73526 2.96836 1.14268 3.33607 0.725855 3.86912C0.309027 4.40217 0.0950353 5.06592 0.122025 5.74205V5.81527C0.116513 6.55521 0.373822 7.27308 0.848126 7.84104C1.13052 8.18237 1.4962 8.44507 1.90982 8.60375H27.2685C29.752 8.66662 32.1128 9.69739 33.8471 11.4762C35.5815 13.255 36.5522 15.6411 36.5522 18.1254C36.5522 20.6098 35.5815 22.9959 33.8471 24.7747C32.1128 26.5535 29.752 27.5843 27.2685 27.6471H17.3776C15.9649 27.8969 14.6694 28.5928 13.6811 29.6327C12.6928 30.6726 12.0637 32.0019 11.8861 33.4254H27.6529C31.7099 33.4254 35.6007 31.8138 38.4694 28.9451C41.3382 26.0763 42.9498 22.1855 42.9498 18.1285C42.9498 14.0715 41.3382 10.1807 38.4694 7.31192C35.6007 4.44318 31.7099 2.83154 27.6529 2.83154Z" fill="#016DCD"/>
</g>
<defs>
<clipPath id="clip0_40003311_1944">
<rect width="140.339" height="36" fill="white"/>
</clipPath>
</defs>
</svg>
