<svg width="100" height="101" viewBox="0 0 100 101" fill="none" xmlns="http://www.w3.org/2000/svg">
<g opacity="0.6">
<path d="M70.7721 34.6629V73.5348C70.772 74.7263 70.2986 75.869 69.456 76.7115C68.6134 77.5541 67.4706 78.0274 66.279 78.0274H34.0107C33.4206 78.0273 32.8364 77.911 32.2913 77.6852C31.7462 77.4593 31.2509 77.1283 30.8337 76.711C30.4165 76.2938 30.0856 75.7984 29.8599 75.2533C29.6342 74.7081 29.518 74.1239 29.5181 73.5338V27.3764C29.5181 26.1847 29.9914 25.0419 30.8341 24.1993C31.6767 23.3567 32.8195 22.8833 34.0111 22.8833H58.9954L70.7721 34.6629Z" fill="#EE1520"/>
<path d="M52.6629 50.4555L59.1405 56.9331L56.6211 59.4511L50.1449 52.9749L43.6679 59.4511L41.1494 56.9331L47.6256 50.4555L41.1494 43.9794L43.6679 41.4604L50.1449 47.9375L56.6211 41.4604L59.1405 43.9794L52.6629 50.4555Z" fill="white"/>
</g>
</svg>
