<svg width="100" height="100" viewBox="0 0 100 100" fill="none" xmlns="http://www.w3.org/2000/svg">
<g opacity="0.6">
<path d="M50.3525 42.4836C53.0684 42.4836 55.2904 41.6197 57.0186 39.8919C58.7467 38.164 59.6108 35.942 59.6108 33.2258C59.6108 30.51 58.7467 28.2879 57.0186 26.5598C55.2904 24.8316 53.0684 23.9675 50.3525 23.9675C47.6373 23.9675 45.4154 24.8316 43.687 26.5598C41.9585 28.2879 41.0944 30.51 41.0947 33.2258C41.0947 35.9411 41.9588 38.1631 43.687 39.8919C45.4151 41.6206 47.637 42.4846 50.3525 42.4836Z" fill="#FF9501"/>
<path d="M60.29 42.0521C60.7787 42.2246 61.2861 42.3383 61.8017 42.391C62.3037 42.4502 62.8087 42.4816 63.3142 42.485C66.0295 42.485 68.2513 41.6211 69.9798 39.8933C71.7083 38.1654 72.5728 35.9429 72.5735 33.2258C72.5735 30.5099 71.7094 28.2879 69.9812 26.5598C68.253 24.8316 66.0306 23.9675 63.3138 23.9675C62.8072 23.9718 62.3017 24.0133 61.8012 24.0916C61.2916 24.1641 60.7868 24.2671 60.2896 24.4C61.2613 25.5663 62.0236 26.8924 62.5424 28.3191C63.0566 29.7386 63.3138 31.3742 63.3138 33.2258C63.3138 35.0774 63.0566 36.7539 62.5424 38.2552C62.0282 39.7577 61.2774 41.0234 60.29 42.0521Z" fill="#016DCD"/>
<path d="M36.8376 42.0268C37.343 42.0233 37.8478 41.992 38.3497 41.9328C38.8654 41.8801 39.373 41.7663 39.8618 41.5939C38.8744 40.5652 38.1235 39.2998 37.609 37.7979C37.0944 36.296 36.8373 34.6195 36.8376 32.7685C36.8376 30.9166 37.0947 29.2809 37.609 27.8614C38.1274 26.4344 38.8897 25.1083 39.8618 23.9422C39.3644 23.8095 38.8594 23.7066 38.3497 23.6339C37.8494 23.5557 37.344 23.5144 36.8376 23.5103C34.1218 23.5103 31.8998 24.3743 30.1716 26.1025C28.4434 27.8307 27.5793 30.0528 27.5793 32.769C27.5793 35.4842 28.4434 37.7061 30.1716 39.4346C31.8998 41.1631 34.1218 42.0271 36.8376 42.0268Z" fill="#EE1520"/>
<path d="M83.9902 52.6059C83.2084 51.454 82.1386 50.4871 80.7808 49.7053C79.2175 48.8824 77.1807 48.1522 74.6704 47.5145C72.16 46.8768 69.4856 46.3931 66.6469 46.0635C68.7868 47.0925 70.5151 48.44 71.8318 50.1058C73.1485 51.7716 73.8066 53.901 73.806 56.494V76.4903H85.1625V56.4945C85.1628 55.0556 84.772 53.7594 83.9902 52.6059Z" fill="#016DCD"/>
<path d="M65.8449 49.9521C62.841 48.636 60.1462 47.6896 57.7603 47.113C55.3344 46.5322 52.848 46.242 50.3535 46.2486C47.8483 46.243 45.3513 46.5332 42.9142 47.113C40.5073 47.6893 37.802 48.6356 34.7981 49.9521C33.482 50.5283 32.4533 51.4027 31.7119 52.5753C30.9705 53.7479 30.6001 55.0543 30.6007 56.4945V76.4907H70.102V56.4945C70.102 55.053 69.7214 53.7467 68.9603 52.5753C68.1991 51.404 67.1607 50.5296 65.8449 49.9521Z" fill="#FF9501"/>
<path d="M25.4811 47.3797C22.9711 48.0173 20.9343 48.7476 19.3707 49.5705C18.0132 50.3539 16.9434 51.3209 16.1613 52.4715C15.3791 53.6222 14.9882 54.9175 14.9885 56.3573V76.3536H26.345V56.3573C26.345 53.7652 27.0031 51.636 28.3192 49.9695C29.6353 48.3031 31.3635 46.9557 33.5037 45.9272C30.6653 46.2572 27.9911 46.7413 25.4811 47.3797Z" fill="#EE1520"/>
</g>
</svg>
