<svg width="100" height="101" viewBox="0 0 100 101" fill="none" xmlns="http://www.w3.org/2000/svg">
<g opacity="0.6">
<path d="M83.9845 33.6255H76.0879V54.5153H93.3316L83.9845 33.6255Z" fill="#EE1520"/>
<path d="M93.3319 54.4546V65.8934H92.2871C92.1174 61.0459 88.1343 57.1681 83.2459 57.1681C78.3576 57.1681 74.374 61.0459 74.2048 65.8934C74.2048 65.9733 74.2001 66.0541 74.1992 66.1345H51.3832C51.3954 65.949 51.4014 65.761 51.401 65.5705C51.401 60.5744 47.3507 56.5237 42.3543 56.5237C37.3578 56.5237 33.307 60.5754 33.307 65.5714C33.307 65.7594 33.313 65.9474 33.3249 66.1354H30.751V29.3039C30.7511 28.4082 31.107 27.5491 31.7404 26.9157C32.3738 26.2823 33.2329 25.9264 34.1287 25.9263H76.0882V54.4546H93.3319Z" fill="#FF9501"/>
<path d="M42.3544 56.5244C37.3574 56.5244 33.3071 60.5752 33.3071 65.5712C33.3071 65.7592 33.3131 65.9472 33.325 66.1352C33.615 70.8694 37.5468 74.6189 42.3544 74.6189C47.1619 74.6189 51.0933 70.8694 51.3833 66.1352C51.3955 65.9497 51.4015 65.7617 51.4011 65.5712C51.4011 60.5752 47.3508 56.5244 42.3544 56.5244ZM42.3544 70.6781C41.3194 70.6786 40.3086 70.3648 39.4559 69.7782C38.6032 69.1917 37.9486 68.36 37.5789 67.3933C37.2092 66.4266 37.1418 65.3704 37.3855 64.3645C37.6292 63.3587 38.1726 62.4505 38.9438 61.7602C39.715 61.0699 40.6776 60.6301 41.7042 60.4989C42.7308 60.3677 43.7731 60.5513 44.6931 61.0255C45.6131 61.4996 46.3674 62.2419 46.8563 63.1542C47.3451 64.0665 47.5455 65.1057 47.4308 66.1343C47.2919 67.3834 46.6973 68.5374 45.7606 69.3755C44.824 70.2135 43.6112 70.6766 42.3544 70.6762V70.6781Z" fill="#016DCD"/>
<path d="M47.4605 65.5715C47.4605 66.5814 47.161 67.5687 46.5999 68.4085C46.0388 69.2482 45.2413 69.9027 44.3082 70.2892C43.3751 70.6757 42.3484 70.7768 41.3578 70.5798C40.3672 70.3828 39.4574 69.8964 38.7432 69.1823C38.0291 68.4681 37.5427 67.5582 37.3457 66.5677C37.1486 65.5771 37.2498 64.5504 37.6363 63.6173C38.0228 62.6842 38.6773 61.8867 39.517 61.3256C40.3568 60.7645 41.3441 60.465 42.354 60.465C43.0261 60.4598 43.6924 60.5883 44.3143 60.8431C44.9362 61.0979 45.5012 61.4738 45.9764 61.9491C46.4516 62.4243 46.8276 62.9893 47.0824 63.6112C47.3371 64.2331 47.4657 64.8994 47.4605 65.5715Z" fill="white"/>
<path d="M92.2871 65.8932C92.1174 61.0458 88.1344 57.168 83.246 57.168C78.3576 57.168 74.3741 61.0458 74.2049 65.8932C74.2049 65.9731 74.2002 66.054 74.1992 66.1344C74.1992 66.1612 74.1992 66.1879 74.1992 66.2143C74.1992 66.4042 74.2052 66.5922 74.2171 66.7783C74.5071 71.512 78.4394 75.262 83.2465 75.262C88.0535 75.262 91.9854 71.512 92.2758 66.7783C92.2877 66.5925 92.2935 66.4045 92.2932 66.2143C92.2928 66.1066 92.2904 65.9999 92.2871 65.8932ZM88.32 66.7778C88.1836 68.0289 87.59 69.1856 86.6532 70.0258C85.7163 70.8661 84.5021 71.3308 83.2436 71.3308C81.9852 71.3308 80.771 70.8661 79.8341 70.0258C78.8972 69.1856 78.3037 68.0289 78.1673 66.7778C78.1467 66.5905 78.1363 66.4022 78.1362 66.2138C78.1362 66.1062 78.1395 65.9995 78.1461 65.8928C78.2287 64.5972 78.8016 63.3817 79.7483 62.4934C80.695 61.6051 81.9445 61.1107 83.2427 61.1107C84.5409 61.1107 85.7904 61.6051 86.7371 62.4934C87.6838 63.3817 88.2567 64.5972 88.3393 65.8928C88.3459 65.9995 88.3492 66.1062 88.3492 66.2138C88.3497 66.4022 88.34 66.5905 88.32 66.7778Z" fill="#016DCD"/>
<path d="M88.3525 66.2145C88.3524 66.4029 88.342 66.5912 88.3215 66.7785C88.1851 68.0296 87.5915 69.1862 86.6546 70.0265C85.7178 70.8668 84.5036 71.3315 83.2451 71.3315C81.9866 71.3315 80.7724 70.8668 79.8356 70.0265C78.8987 69.1862 78.3051 68.0296 78.1687 66.7785C78.1482 66.5912 78.1378 66.4029 78.1377 66.2145C78.1377 66.1068 78.141 66.0001 78.1476 65.8934C78.2301 64.5978 78.803 63.3823 79.7497 62.494C80.6965 61.6057 81.9459 61.1113 83.2442 61.1113C84.5424 61.1113 85.7919 61.6057 86.7386 62.494C87.6853 63.3823 88.2582 64.5978 88.3407 65.8934C88.3492 66.0001 88.3525 66.1068 88.3525 66.2145Z" fill="white"/>
<path d="M83.2776 38.0508H78.7056V50.1457H88.6896L83.2776 38.0508Z" fill="white"/>
<path d="M25.4991 60.1206H13.6288C12.2522 60.1206 11.1362 61.2366 11.1362 62.6132C11.1362 63.9898 12.2522 65.1058 13.6288 65.1058H25.4991C26.8757 65.1058 27.9917 63.9898 27.9917 62.6132C27.9917 61.2366 26.8757 60.1206 25.4991 60.1206Z" fill="#FF9501"/>
<path d="M25.4992 51.7773H9.37932C8.00269 51.7773 6.88672 52.8933 6.88672 54.2699C6.88672 55.6466 8.00269 56.7625 9.37932 56.7625H25.4992C26.8758 56.7625 27.9918 55.6466 27.9918 54.2699C27.9918 52.8933 26.8758 51.7773 25.4992 51.7773Z" fill="#EE1520"/>
<path d="M25.4994 43.7046H15.2343C13.8577 43.7046 12.7417 44.8206 12.7417 46.1972C12.7417 47.5738 13.8577 48.6898 15.2343 48.6898H25.4994C26.876 48.6898 27.992 47.5738 27.992 46.1972C27.992 44.8206 26.876 43.7046 25.4994 43.7046Z" fill="#016DCD"/>
</g>
</svg>
