<svg width="100" height="101" viewBox="0 0 100 101" fill="none" xmlns="http://www.w3.org/2000/svg">
<g opacity="0.6">
<path d="M57.5938 20.6833L24.4703 24.8736C22.3092 25.147 20.779 27.1205 21.0524 29.2815L26.6962 73.8942C26.9696 76.0553 28.943 77.5855 31.1041 77.3121L64.2276 73.1218C66.3886 72.8484 67.9189 70.8749 67.6455 68.7139L62.0017 24.1012C61.7283 21.9401 59.7548 20.4099 57.5938 20.6833Z" fill="#FF9501"/>
<path d="M61.3356 21.6894L28.1063 24.9358C25.9384 25.1476 24.3526 27.0768 24.5644 29.2447L28.9369 73.9999C29.1487 76.1678 31.0779 77.7536 33.2458 77.5418L66.4751 74.2953C68.6431 74.0835 70.2288 72.1544 70.017 69.9864L65.6445 25.2313C65.4327 23.0633 63.5035 21.4776 61.3356 21.6894Z" fill="#EE1520"/>
<path d="M66.2134 25.1689H32.8259C30.6477 25.1689 28.8818 26.9348 28.8818 29.113V74.0813C28.8818 76.2595 30.6477 78.0253 32.8259 78.0253H66.2134C68.3917 78.0253 70.1575 76.2595 70.1575 74.0813V29.113C70.1575 26.9348 68.3917 25.1689 66.2134 25.1689Z" fill="#016DCD"/>
<path d="M37.6318 46.5972H61.5608" stroke="white" stroke-width="2" stroke-linecap="round" stroke-linejoin="round"/>
<path d="M37.6318 51.5972H61.5608" stroke="white" stroke-width="2" stroke-linecap="round" stroke-linejoin="round"/>
<path d="M37.6318 56.5972H61.5608" stroke="white" stroke-width="2" stroke-linecap="round" stroke-linejoin="round"/>
<path d="M70.5394 80.8107C69.3352 80.8171 68.1425 80.576 67.0353 80.1024C64.8873 79.1943 63.1777 77.485 62.2692 75.3372C61.8016 74.2278 61.5608 73.0362 61.5608 71.8323C61.5608 70.6285 61.8016 69.4369 62.2692 68.3275C63.1774 66.1794 64.8871 64.4699 67.0353 63.5618C68.1444 63.094 69.3359 62.853 70.5397 62.853C71.7434 62.853 72.9349 63.094 74.044 63.5618C76.1919 64.4696 77.9016 66.1786 78.8102 68.3261C79.2776 69.4354 79.5184 70.627 79.5184 71.8307C79.5184 73.0344 79.2776 74.226 78.8102 75.3353C77.9015 77.4831 76.1919 79.1925 74.044 80.101C72.9368 80.5752 71.7439 80.8168 70.5394 80.8107Z" fill="#ED1E24"/>
<path d="M70.5396 63.323C71.6801 63.3155 72.8099 63.5437 73.858 63.9933C75.8962 64.8539 77.518 66.4759 78.3784 68.5141C78.8207 69.5645 79.0486 70.6928 79.0486 71.8325C79.0486 72.9723 78.8207 74.1006 78.3784 75.151C77.5175 77.1888 75.8958 78.8105 73.858 79.6713C72.8076 80.1134 71.6795 80.3411 70.5398 80.3411C69.4002 80.3411 68.272 80.1134 67.2216 79.6713C65.1838 78.8103 63.562 77.1887 62.7008 75.151C62.2587 74.1005 62.031 72.9723 62.031 71.8325C62.031 70.6928 62.2587 69.5646 62.7008 68.5141C63.5617 66.4761 65.1836 64.8544 67.2216 63.9938C68.2696 63.5442 69.3992 63.316 70.5396 63.3235M70.5396 62.3834C69.2712 62.3771 68.015 62.6313 66.8489 63.1303C64.5907 64.0861 62.7934 65.8835 61.8378 68.1418C61.3453 69.3096 61.0916 70.5642 61.0916 71.8316C61.0916 73.099 61.3453 74.3536 61.8378 75.5214C62.7934 77.7796 64.5909 79.5768 66.8493 80.532C68.0171 81.0247 69.2717 81.2785 70.5391 81.2785C71.8066 81.2785 73.0612 81.0247 74.2289 80.532C76.487 79.5765 78.2845 77.7793 79.2404 75.5214C79.7329 74.3536 79.9867 73.099 79.9867 71.8316C79.9867 70.5642 79.7329 69.3096 79.2404 68.1418C78.2849 65.8834 76.4874 64.0858 74.2289 63.1303C73.0628 62.6312 71.8066 62.377 70.5382 62.3834H70.5396Z" fill="white"/>
<path d="M71.7305 71.8324L74.7942 74.8956L73.6027 76.0867L70.5394 73.024L67.4762 76.0867L66.2852 74.8956L69.3479 71.8324L66.2852 68.7692L67.4762 67.5781L70.5394 70.6413L73.6027 67.5781L74.7942 68.7692L71.7305 71.8324Z" fill="white"/>
</g>
</svg>
