<svg width="100" height="100" viewBox="0 0 100 100" fill="none" xmlns="http://www.w3.org/2000/svg">
<g opacity="0.6">
<path d="M70.7721 34.1626V73.0345C70.772 74.2261 70.2986 75.3688 69.456 76.2113C68.6134 77.0538 67.4706 77.5271 66.279 77.5271H34.0107C33.4206 77.5271 32.8364 77.4108 32.2913 77.1849C31.7462 76.9591 31.2509 76.6281 30.8337 76.2108C30.4165 75.7935 30.0856 75.2982 29.8599 74.753C29.6342 74.2079 29.518 73.6236 29.5181 73.0336V26.8761C29.5181 25.6845 29.9914 24.5417 30.8341 23.699C31.6767 22.8564 32.8195 22.3831 34.0111 22.3831H58.9954L70.7721 34.1626Z" fill="#EE1520"/>
<path d="M52.6629 49.9553L59.1405 56.4328L56.6211 58.9508L50.1449 52.4747L43.6679 58.9508L41.1494 56.4328L47.6256 49.9553L41.1494 43.4791L43.6679 40.9602L50.1449 47.4373L56.6211 40.9602L59.1405 43.4791L52.6629 49.9553Z" fill="white"/>
</g>
</svg>
