<svg width="100" height="101" viewBox="0 0 100 101" fill="none" xmlns="http://www.w3.org/2000/svg">
<g opacity="0.6">
<path d="M46.0304 79.1252C47.2114 80.3065 48.6312 80.8971 50.2898 80.8967C51.9484 80.8964 53.3682 80.3059 54.5493 79.1252C55.7306 77.9445 56.3211 76.5246 56.3208 74.8657H44.2588C44.2588 76.5246 44.8493 77.9445 46.0304 79.1252Z" fill="#016DCD"/>
<path d="M68.3832 67.3267V44.4087C68.3832 40.1869 67.1393 36.4048 64.6515 33.0626C62.1638 29.7203 58.8844 27.6221 54.8132 26.7678V25.1091C54.8132 23.8528 54.3734 22.7848 53.4938 21.9049C52.6143 21.025 51.5462 20.5853 50.2896 20.5859C49.0331 20.5859 47.9651 21.0256 47.0859 21.9049C46.2066 22.7841 45.7668 23.8522 45.7665 25.1091V26.7678C41.6956 27.6221 38.4162 29.7203 35.9282 33.0626C33.4401 36.4048 32.1966 40.1869 32.1975 44.4087V67.3267H26.1655V71.8513H74.4142V67.3277L68.3832 67.3267Z" fill="#016DCD"/>
<path d="M68.7008 79.2169C67.4964 79.2234 66.3035 78.9823 65.1962 78.5086C63.0482 77.6006 61.3386 75.8913 60.4305 73.7433C59.9627 72.6341 59.7217 71.4424 59.7217 70.2385C59.7217 69.0347 59.9627 67.843 60.4305 66.7337C61.3385 64.5855 63.0481 62.8758 65.1962 61.9675C66.3054 61.5001 67.497 61.2593 68.7008 61.2593C69.9045 61.2593 71.0961 61.5001 72.2053 61.9675C74.3532 62.8762 76.0626 64.5858 76.971 66.7337C77.4385 67.843 77.6793 69.0345 77.6793 70.2383C77.6793 71.442 77.4385 72.6336 76.971 73.7429C76.0627 75.8908 74.3533 77.6003 72.2053 78.5086C71.098 78.9822 69.9051 79.2233 68.7008 79.2169Z" fill="#ED1E24"/>
<path d="M68.701 61.7293C69.8413 61.7218 70.9709 61.95 72.0189 62.3995C74.0572 63.2598 75.6793 64.8816 76.5397 66.9198C76.9818 67.9703 77.2096 69.0986 77.2096 70.2383C77.2096 71.378 76.9818 72.5063 76.5397 73.5567C75.6789 75.5947 74.057 77.2164 72.0189 78.0771C70.9685 78.5191 69.8404 78.7468 68.7007 78.7468C67.5611 78.7468 66.4329 78.5191 65.3825 78.0771C63.3447 77.2162 61.723 75.5945 60.8622 73.5567C60.4198 72.5063 60.1919 71.3781 60.1919 70.2383C60.1919 69.0985 60.4198 67.9703 60.8622 66.9198C61.7226 64.8818 63.3445 63.26 65.3825 62.3995C66.4307 61.9499 67.5604 61.7217 68.701 61.7293ZM68.701 60.7892C67.4325 60.7827 66.1763 61.037 65.0102 61.5361C62.7518 62.4916 60.9542 64.2891 59.9987 66.5476C59.5062 67.7154 59.2524 68.97 59.2524 70.2374C59.2524 71.5048 59.5062 72.7593 59.9987 73.9271C60.9546 76.1851 62.7521 77.9822 65.0102 78.9377C66.178 79.4304 67.4326 79.6842 68.7 79.6842C69.9674 79.6842 71.222 79.4304 72.3898 78.9377C74.6479 77.9824 76.4453 76.1852 77.4008 73.9271C77.8934 72.7593 78.1471 71.5048 78.1471 70.2374C78.1471 68.97 77.8934 67.7154 77.4008 66.5476C76.4453 64.2893 74.648 62.4918 72.3898 61.5361C71.2237 61.037 69.9675 60.7827 68.6991 60.7892H68.701Z" fill="white"/>
<path d="M69.8921 70.2382L72.9554 73.3014L71.7638 74.4924L68.7011 71.4297L65.6374 74.4924L64.4468 73.3014L67.5095 70.2382L64.4468 67.1749L65.6374 65.9834L68.7011 69.0471L71.7638 65.9834L72.9554 67.1749L69.8921 70.2382Z" fill="white"/>
</g>
</svg>
