<svg width="100" height="101" viewBox="0 0 100 101" fill="none" xmlns="http://www.w3.org/2000/svg">
<g opacity="0.6">
<path d="M70.0673 23.0342H30.0955C25.9454 23.0342 22.5811 26.3985 22.5811 30.5486V70.5204C22.5811 74.6706 25.9454 78.0349 30.0955 78.0349H70.0673C74.2174 78.0349 77.5818 74.6706 77.5818 70.5204V30.5486C77.5818 26.3985 74.2174 23.0342 70.0673 23.0342Z" fill="#FF9501"/>
<path d="M47.2706 64.9775H32.1745C31.2914 64.9775 30.5754 65.6935 30.5754 66.5766V69.5609C30.5754 70.444 31.2914 71.1599 32.1745 71.1599H47.2706C48.1538 71.1599 48.8697 70.444 48.8697 69.5609V66.5766C48.8697 65.6935 48.1538 64.9775 47.2706 64.9775Z" fill="#EE1520"/>
<path d="M67.8295 23.0342V46.4034L57.7567 41.3665L47.6833 46.4034V23.0342H67.8295Z" fill="#016DCD"/>
</g>
</svg>
