<svg width="100" height="101" viewBox="0 0 100 101" fill="none" xmlns="http://www.w3.org/2000/svg">
<g opacity="0.6">
<path d="M50.0753 46.0382C53.4695 46.0382 56.2467 44.9584 58.4066 42.7987C60.5666 40.6391 61.6464 37.8619 61.6461 34.4673C61.6461 31.0734 60.5663 28.2964 58.4066 26.1364C56.247 23.9765 53.4698 22.8965 50.0753 22.8965C46.6813 22.8965 43.9043 23.9765 41.7443 26.1364C39.5844 28.2964 38.5044 31.0734 38.5044 34.4673C38.5044 37.8616 39.5844 40.6387 41.7443 42.7987C43.9043 44.9587 46.6813 46.0385 50.0753 46.0382Z" fill="#016DCD"/>
<path d="M69.4374 55.3722C65.6834 53.7267 62.3148 52.544 59.3316 51.8239C56.2998 51.0977 53.1923 50.7348 50.0748 50.7428C46.9447 50.7363 43.8248 51.0992 40.7798 51.8239C37.7716 52.5446 34.3903 53.7274 30.636 55.3722C28.9905 56.0929 27.7048 57.1857 26.7789 58.6507C25.8529 60.1156 25.3901 61.7484 25.3904 63.5489V77.9151H74.7601V63.5489C74.7601 61.7493 74.2844 60.1166 73.333 58.6507C72.3817 57.1848 71.0831 56.092 69.4374 55.3722Z" fill="#016DCD"/>
</g>
</svg>
