<svg width="100" height="101" viewBox="0 0 100 101" fill="none" xmlns="http://www.w3.org/2000/svg">
<g opacity="0.6">
<path d="M79.5882 41.393V73.6501C79.5882 76.2245 76.909 78.3114 73.6075 78.3114H26.7205C23.418 78.3114 20.7407 76.2245 20.7407 73.6501V41.2694L20.9287 41.1443L22.7675 39.9147L37.8138 29.856H62.3337L77.38 39.9147L79.5882 41.393Z" fill="#EE1520"/>
<path d="M54.7775 26.7417C54.7775 27.9046 54.1664 29.0571 52.9984 29.8393L52.9749 29.8548L50.1641 31.7349L24.1946 49.0985C23.7554 49.3905 23.2731 49.6118 22.7652 49.7542C22.1678 49.9234 21.5463 49.9914 20.9265 49.9554C20.8644 49.9521 20.8024 49.9474 20.7408 49.9417C19.5286 49.8346 18.3662 49.3363 17.5445 48.4752C15.9145 46.7662 16.2477 44.274 18.2896 42.9091L20.7403 41.2715L20.9283 41.1464L22.7671 39.9168L37.8134 29.8581L47.0943 23.6536C47.9873 23.0557 49.0632 22.7727 50.1255 22.7887H50.1725C51.5173 22.8197 52.8367 23.3269 53.742 24.2759C54.4414 25.0031 54.7775 25.875 54.7775 26.7417Z" fill="#FF9501"/>
<path d="M82.7844 48.4731C82.0056 49.2891 80.9193 49.7817 79.7762 49.9194C79.036 50.011 78.285 49.9542 77.5671 49.7521C77.0593 49.6095 76.577 49.3883 76.1377 49.0964L50.164 31.7328L47.3541 29.8527L47.3311 29.8372C46.1607 29.055 45.5525 27.903 45.5525 26.7396C45.5525 25.8734 45.8904 25.0005 46.5866 24.2706C47.4914 23.3216 48.8112 22.8134 50.1555 22.7829H50.1715C51.2446 22.7613 52.3337 23.0433 53.2357 23.6478L62.5165 29.8522L77.5671 39.9143L79.7762 41.3916L82.0413 42.906C84.0827 44.2715 84.4183 46.7636 82.7844 48.4731Z" fill="#FF9501"/>
<path d="M34.4536 54.084H65.874C66.6115 54.084 67.2089 54.7002 67.2089 55.4602V56.0511C67.2089 56.8111 66.6115 57.4273 65.874 57.4273H34.4536C33.7165 57.4273 33.1187 56.8111 33.1187 56.0511V55.4602C33.1205 54.6979 33.7184 54.084 34.4536 54.084Z" fill="white"/>
<path d="M34.4536 59.8687H65.874C66.6115 59.8687 67.2089 60.4849 67.2089 61.2454V61.8358C67.2089 62.5963 66.6115 63.2125 65.874 63.2125H34.4536C33.7165 63.2125 33.1187 62.5963 33.1187 61.8358V61.2454C33.1205 60.4849 33.7184 59.8687 34.4536 59.8687Z" fill="white"/>
<path d="M34.4536 65.6558H65.874C66.6115 65.6558 67.2089 66.272 67.2089 67.032V67.621C67.2089 68.381 66.6115 68.9972 65.874 68.9972H34.4536C33.7165 68.9972 33.1187 68.381 33.1187 67.621V67.0302C33.1205 66.272 33.7184 65.6558 34.4536 65.6558Z" fill="white"/>
</g>
</svg>
