<svg width="100" height="101" viewBox="0 0 100 101" fill="none" xmlns="http://www.w3.org/2000/svg">
<g opacity="0.6">
<path d="M62.4093 30.3251V77.7254L37.928 70.7308V23.4053L62.4093 30.3251Z" fill="#045B9B"/>
<path d="M37.8453 23.3823L37.928 23.4054V70.7309L37.8453 70.7074L21.1238 76.0658C20.0656 76.5182 19.0226 76.493 17.9948 75.9901C16.967 75.4871 16.4524 74.7326 16.4512 73.7264V31.6112C16.4512 30.9566 16.6862 30.3774 17.1562 29.8735C17.6263 29.3696 18.2334 28.9922 18.9776 28.7412L37.8453 23.3823Z" fill="#016DCD"/>
<path d="M83.7133 27.3075V69.9524C83.7133 70.5054 83.4797 70.9833 83.0125 71.386C82.5453 71.7886 81.9692 72.0907 81.2842 72.2922L62.4132 77.7267H62.4094V30.3251H62.4132L79.0411 24.9667C80.0997 24.5643 81.1428 24.6023 82.1706 25.0804C83.1985 25.5586 83.7127 26.301 83.7133 27.3075Z" fill="#016DCD"/>
<path d="M26.8089 48.2334C28.0168 48.2334 28.996 47.4424 28.996 46.4666C28.996 45.4908 28.0168 44.6997 26.8089 44.6997C25.601 44.6997 24.6218 45.4908 24.6218 46.4666C24.6218 47.4424 25.601 48.2334 26.8089 48.2334Z" fill="white"/>
<path d="M76.523 55.6006C77.7309 55.6006 78.7101 54.8096 78.7101 53.8338C78.7101 52.8579 77.7309 52.0669 76.523 52.0669C75.3151 52.0669 74.3359 52.8579 74.3359 53.8338C74.3359 54.8096 75.3151 55.6006 76.523 55.6006Z" fill="white"/>
<path d="M28.108 49.7284C27.6716 49.126 27.2689 48.4999 26.9019 47.8529L27.6793 47.5239C28.0328 48.1443 28.4196 48.7451 28.8379 49.3237L28.108 49.7284Z" fill="white"/>
<path d="M35.5775 55.8995C34.1283 55.4295 32.6816 54.5548 31.2771 53.3059L31.8881 52.77C33.2042 53.9395 34.5443 54.7522 35.875 55.1856L35.5775 55.8995ZM40.8282 55.8563L40.5109 55.1484C41.8181 54.6925 43.1281 53.8455 44.4042 52.6309L45.0369 53.148C43.6719 54.4471 42.2562 55.3581 40.8282 55.8563ZM48.4395 49.8972L47.8637 49.3308C49.1665 48.2978 50.5917 47.4295 52.1072 46.7456L52.4987 47.4239C51.049 48.0782 49.6857 48.9089 48.4395 49.8972ZM71.0167 49.3839C69.7091 48.4606 68.2941 47.6999 66.8028 47.1183L67.1511 46.4222C68.7098 47.0298 70.1888 47.8248 71.5554 48.7898L71.0167 49.3839ZM57.1563 46.0373L57.0064 45.2876C57.983 45.1362 58.9699 45.0602 59.9582 45.0601C60.6997 45.0604 61.4405 45.1027 62.1772 45.187L62.0663 45.9418C61.3664 45.8616 60.6626 45.8212 59.9582 45.821C59.02 45.8209 58.0833 45.8932 57.1563 46.0373Z" fill="white"/>
<path d="M75.841 54.2039C75.4225 53.6139 74.973 53.0465 74.4944 52.5042L75.175 52.0342C75.6717 52.5971 76.1381 53.1859 76.5724 53.7982L75.841 54.2039Z" fill="white"/>
</g>
</svg>
