<svg width="54" height="43" viewBox="0 0 54 43" fill="none" xmlns="http://www.w3.org/2000/svg">
<g opacity="0.6">
<path d="M50.567 14.429V39.0626C50.567 41.0287 48.4574 42.6224 45.8577 42.6224H8.93808C6.33766 42.6224 4.22949 41.0287 4.22949 39.0626V14.3789L5.77897 13.3763L17.7106 5.61768H36.9798L48.8275 13.3005L50.567 14.429Z" fill="#EE1520"/>
<path d="M31.0304 3.24002C31.0304 4.12829 30.5492 5.00842 29.6295 5.60579L29.611 5.61763L27.3977 7.05182L6.94892 20.3119C6.60159 20.5354 6.22199 20.7043 5.8234 20.8127C5.35224 20.9418 4.86327 20.9936 4.37551 20.9662C3.3688 20.9118 2.39244 20.5269 1.71291 19.8359C0.429355 18.5305 0.691766 16.6274 2.29954 15.5852L4.37662 14.2391L5.82451 13.3001L17.6722 5.61763L24.9801 0.880173C25.6919 0.418641 26.5479 0.203235 27.3925 0.21989H27.4051C28.464 0.243577 29.5029 0.631087 30.2158 1.35577C30.7658 1.91242 31.0304 2.57826 31.0304 3.24002Z" fill="#FF9501"/>
<path d="M53.0835 19.8361C52.4702 20.4593 51.6149 20.8354 50.7147 20.9405C50.1321 21.0106 49.5414 20.9673 48.9752 20.8128C48.5766 20.7045 48.197 20.5356 47.8497 20.312L27.3975 7.05195L25.185 5.61776L25.1669 5.60592C24.2453 5.00856 23.7664 4.1288 23.7664 3.24052C23.7664 2.57876 24.0325 1.91255 24.5806 1.35479C25.2931 0.63011 26.3324 0.242601 27.3909 0.218913H27.4035C28.2484 0.202258 29.106 0.417664 29.8162 0.879196L37.1241 5.61665L48.9752 13.3006L50.7147 14.4291L52.4983 15.5853C54.1057 16.6275 54.3681 18.5307 53.0835 19.8361Z" fill="#FF9501"/>
<path d="M39.7697 24.1189H15.0287C14.4481 24.1189 13.9775 24.5895 13.9775 25.17V25.6212C13.9775 26.2017 14.4481 26.6723 15.0287 26.6723H39.7697C40.3502 26.6723 40.8208 26.2017 40.8208 25.6212V25.17C40.8208 24.5895 40.3502 24.1189 39.7697 24.1189Z" fill="#016DCD"/>
<path d="M39.7697 28.5386H15.0287C14.4481 28.5386 13.9775 29.0092 13.9775 29.5897V30.0409C13.9775 30.6214 14.4481 31.092 15.0287 31.092H39.7697C40.3502 31.092 40.8208 30.6214 40.8208 30.0409V29.5897C40.8208 29.0092 40.3502 28.5386 39.7697 28.5386Z" fill="#016DCD"/>
<path d="M39.7697 32.9578H15.0287C14.4481 32.9578 13.9775 33.4284 13.9775 34.0089V34.4601C13.9775 35.0406 14.4481 35.5112 15.0287 35.5112H39.7697C40.3502 35.5112 40.8208 35.0406 40.8208 34.4601V34.0089C40.8208 33.4284 40.3502 32.9578 39.7697 32.9578Z" fill="#016DCD"/>
</g>
</svg>
