<svg width="24" height="24" viewBox="0 0 24 24" fill="none" xmlns="http://www.w3.org/2000/svg">
<mask id="mask0_9025_6815" style="mask-type:luminance" maskUnits="userSpaceOnUse" x="2" y="2" width="20" height="20">
<path d="M12 22C17.5228 22 22 17.5228 22 12C22 6.47715 17.5228 2 12 2C6.47715 2 2 6.47715 2 12C2 17.5228 6.47715 22 12 22Z" fill="white"/>
</mask>
<g mask="url(#mask0_9025_6815)">
<path d="M27.625 2H-3.625V7H27.625V2Z" fill="#032EA1"/>
<path d="M27.625 17H-3.625V22H27.625V17Z" fill="#032EA1"/>
<path d="M27.625 7H-3.625V17H27.625V7Z" fill="#E00025"/>
<path d="M9.18262 11.4264H14.8726V13.6157H9.18262V11.4264Z" fill="white"/>
<path d="M14.8732 13.6397H9.18318L9.15918 13.6157V11.4263L9.18318 11.4023H14.8732L14.8975 11.4263V13.6157L14.8732 13.6397ZM9.20651 13.5917H14.8492V11.4503H9.20718L9.20651 13.5917Z" fill="black"/>
<path d="M14.5793 12.6354H14.7586V13.46H14.5793V12.6354ZM9.18262 12.2277H14.8726V12.4824H9.18262V12.2277ZM9.18262 11.8827H14.8726V12.1074H9.18262V11.8827Z" fill="white"/>
<path d="M14.7592 13.484H14.5798L14.5558 13.46V12.6353L14.5798 12.6113H14.7592L14.7832 12.6353V13.46L14.7592 13.484ZM14.6038 13.436H14.7352V12.6593H14.6038V13.436ZM14.8732 12.5063H9.18318L9.15918 12.4823V12.2276L9.18318 12.2036H14.8732L14.8975 12.2276V12.4823L14.8732 12.5063ZM9.20651 12.4583H14.8492V12.2516H9.20718L9.20651 12.4583ZM14.8732 12.1313H9.18318L9.15918 12.1073V11.8826L9.18318 11.8586H14.8732L14.8975 11.8826V12.1073L14.8732 12.1313ZM9.20651 12.0833H14.8492V11.9066H9.20718L9.20651 12.0833Z" fill="black"/>
<path d="M9.18262 11.5383H14.8726V11.756H9.18262V11.5383Z" fill="white"/>
<path d="M14.8725 11.7796H9.18251L9.15918 11.756V11.5383L9.18251 11.5146H14.8725L14.8962 11.5383V11.756L14.8725 11.7796ZM9.20618 11.7333H14.8492V11.563H9.20618V11.7333Z" fill="black"/>
<path d="M10.6805 12.6354H10.8599V13.46H10.6805V12.6354ZM13.1302 12.6354H13.3095V13.46H13.1302V12.6354ZM9.22754 12.6354H9.40687V13.46H9.22754V12.6354ZM9.57921 12.6354H9.75854V13.46H9.57921V12.6354ZM9.95421 12.6354H10.1329V13.46H9.95354L9.95421 12.6354ZM10.3292 12.6354H10.5085V13.46H10.3292V12.6354ZM13.4702 12.6354H13.6495V13.46H13.4702V12.6354ZM13.8452 12.6354H14.0245V13.46H13.8452V12.6354ZM14.2202 12.6354H14.3995V13.46H14.2202V12.6354Z" fill="white"/>
<path d="M14.3998 13.484H14.2205L14.1965 13.46V12.6353L14.2205 12.6113H14.3998L14.4238 12.6353V13.46L14.3998 13.484ZM14.2445 13.436H14.3758V12.6593H14.2445V13.436ZM14.0248 13.484H13.8455L13.8215 13.46V12.6353L13.8455 12.6113H14.0248L14.0488 12.6353V13.46L14.0248 13.484ZM13.8695 13.436H13.9998V12.6593H13.8685L13.8695 13.436ZM13.6498 13.484H13.4705L13.4465 13.46V12.6353L13.4705 12.6113H13.6498L13.6738 12.6353V13.46L13.6498 13.484ZM13.4945 13.436H13.6258V12.6593H13.4945V13.436ZM13.3098 13.484H13.1305L13.1065 13.46V12.6353L13.1305 12.6113H13.3098L13.3338 12.6353V13.46L13.3098 13.484ZM13.1545 13.436H13.2858V12.6593H13.1545V13.436ZM10.8601 13.484H10.6808L10.6568 13.46V12.6353L10.6808 12.6113H10.8601L10.8841 12.6353V13.46L10.8601 13.484ZM10.7048 13.436H10.8361V12.6593H10.7048V13.436ZM10.5088 13.484H10.3295L10.3055 13.46V12.6353L10.3295 12.6113H10.5088L10.5328 12.6353V13.46L10.5088 13.484ZM10.3535 13.436H10.4848V12.6593H10.3535V13.436ZM10.1331 13.484H9.95379L9.92979 13.46V12.6353L9.95379 12.6113H10.1331L10.1571 12.6353V13.46L10.1331 13.484ZM9.97779 13.436H10.1091V12.6593H9.97779V13.436ZM9.75812 13.484H9.57879L9.55479 13.46V12.6353L9.57879 12.6113H9.75812L9.78212 12.6353V13.46L9.75812 13.484ZM9.60279 13.436H9.73412V12.6593H9.60279V13.436ZM9.40646 13.484H9.22713L9.20312 13.46V12.6353L9.22713 12.6113H9.40646L9.43046 12.6353V13.46L9.40646 13.484ZM9.25112 13.436H9.38246V12.6593H9.25112V13.436Z" fill="black"/>
<path d="M6.95801 13.7307C7.06328 13.6735 7.14253 13.578 7.17934 13.464H16.8337C16.8705 13.578 16.9497 13.6735 17.055 13.7307H6.95801Z" fill="white"/>
<path d="M17.0533 13.755H6.95729L6.94629 13.7093C7.0453 13.6552 7.12002 13.5655 7.15529 13.4583L7.16029 13.4407H16.8503L16.855 13.4583C16.8906 13.5654 16.9654 13.6551 17.0643 13.7093L17.0533 13.755ZM7.03762 13.7067H16.973C16.9007 13.6503 16.8458 13.5747 16.8143 13.4887H7.19629C7.1648 13.5747 7.10983 13.6502 7.03762 13.7067Z" fill="black"/>
<path d="M11.882 8.09327C11.882 8.09327 11.875 7.88761 11.9946 7.88527C12.1143 7.88294 12.107 8.09327 12.107 8.09327H11.882ZM11.2576 10.8203V10.5436C11.2536 10.4049 11.1196 10.3949 11.1156 10.2943C11.1156 10.2943 11.0983 10.1429 11.1383 10.0736C11.1926 10.2759 11.291 10.2403 11.291 10.1556C11.291 10.0829 11.2353 10.0156 11.1206 9.83927C11.084 9.78294 11.1066 9.60594 11.158 9.54294C11.178 9.69661 11.2006 9.76994 11.2666 9.76994C11.307 9.76994 11.3396 9.74394 11.3396 9.66694C11.3396 9.56927 11.273 9.51961 11.2396 9.43061C11.2213 9.38563 11.2163 9.3363 11.2254 9.28856C11.2344 9.24083 11.2571 9.19674 11.2906 9.16161C11.318 9.31327 11.3096 9.37361 11.377 9.37361C11.5126 9.33061 11.377 9.13427 11.348 9.08461C11.3146 9.02694 11.393 8.91161 11.393 8.91161C11.436 9.04494 11.45 9.05727 11.4966 9.04494C11.5553 9.02927 11.5476 8.94227 11.476 8.87194C11.4306 8.82727 11.4356 8.76127 11.484 8.70827C11.533 8.80361 11.5953 8.79761 11.6013 8.74161L11.562 8.52194H12.425L12.3833 8.73327C12.371 8.79427 12.4533 8.80727 12.5043 8.70761C12.5526 8.76061 12.5576 8.82694 12.5123 8.87127C12.4406 8.94161 12.433 9.02861 12.492 9.04461C12.5383 9.05694 12.5523 9.04461 12.5953 8.91127C12.6154 8.93484 12.6299 8.96265 12.6376 8.99261C12.6454 9.02257 12.6463 9.05391 12.6403 9.08427C12.6113 9.13361 12.4756 9.33027 12.6113 9.37294C12.678 9.37294 12.6703 9.31261 12.6973 9.16127C12.731 9.19632 12.7538 9.2404 12.7629 9.28816C12.772 9.33591 12.767 9.38528 12.7486 9.43027C12.7153 9.51927 12.6486 9.56861 12.6486 9.66627C12.6486 9.74327 12.682 9.76961 12.7216 9.76961C12.7883 9.76961 12.8103 9.69594 12.8303 9.54261C12.8816 9.60561 12.9043 9.78227 12.8676 9.83861C12.753 10.0149 12.6973 10.0823 12.6973 10.1549C12.6973 10.2383 12.7973 10.2753 12.85 10.0729C12.89 10.1419 12.8726 10.2936 12.8726 10.2936C12.8686 10.3936 12.7346 10.4043 12.7306 10.5429V10.8196L11.2576 10.8203ZM11.6186 8.52027L11.5986 8.36394H12.3906L12.371 8.52027H11.6186ZM11.6716 8.36061L11.6546 8.23227H12.3333L12.3163 8.36061H11.6716ZM11.7796 8.22727L11.7683 8.09894H12.2213L12.21 8.22727H11.7796ZM13.4306 13.7313C13.3306 13.6923 13.1816 13.5853 13.1816 13.4779V12.2623L13.315 12.0956H10.675L10.8013 12.2623V13.4769C10.8013 13.5846 10.7013 13.6916 10.5986 13.7306L13.4306 13.7313Z" fill="white"/>
<path d="M10.6001 13.755L10.5918 13.7083C10.6818 13.675 10.7788 13.575 10.7788 13.4773V12.2707L10.6281 12.0707H13.3645L13.2071 12.2707V13.4773C13.2071 13.5693 13.3428 13.6707 13.4405 13.7083L13.4318 13.755H10.6001ZM10.7245 12.1187L10.8268 12.2547V13.4773C10.8268 13.566 10.7665 13.6517 10.6918 13.707H13.3321C13.2438 13.6513 13.1591 13.566 13.1591 13.4773V12.254L13.2658 12.1187H10.7245ZM12.7578 10.8443H11.2335V10.5443C11.2315 10.48 11.1978 10.4487 11.1618 10.4153C11.1258 10.382 11.0951 10.352 11.0915 10.2957C11.0915 10.291 11.0741 10.1377 11.1175 10.0623L11.1465 10.0123L11.1615 10.0683C11.1905 10.1763 11.2281 10.2017 11.2445 10.199C11.2608 10.1963 11.2668 10.179 11.2668 10.1563C11.2668 10.1047 11.2305 10.05 11.1581 9.94067L11.1001 9.85233C11.0581 9.78767 11.0805 9.59967 11.1388 9.528L11.1741 9.48467L11.1815 9.54C11.2011 9.694 11.2228 9.746 11.2661 9.746C11.2781 9.746 11.3151 9.746 11.3151 9.667C11.3125 9.61867 11.2957 9.57218 11.2668 9.53333C11.2478 9.50414 11.2318 9.47309 11.2191 9.44067C11.1992 9.39126 11.1941 9.33714 11.2042 9.28486C11.2144 9.23257 11.2395 9.18435 11.2765 9.146L11.3098 9.11567L11.3175 9.15933C11.3231 9.19033 11.3271 9.21733 11.3308 9.241C11.3448 9.33567 11.3501 9.35033 11.3765 9.35133C11.3843 9.34919 11.3916 9.34528 11.3977 9.33991C11.4038 9.33454 11.4086 9.32784 11.4118 9.32033C11.4325 9.26467 11.3678 9.15967 11.3405 9.11467L11.3305 9.09867C11.2908 9.02967 11.3675 8.913 11.3761 8.89867L11.4038 8.858L11.4191 8.90467C11.4595 9.031 11.4675 9.029 11.4935 9.022C11.4983 9.02088 11.5028 9.01841 11.5063 9.01487C11.5099 9.01133 11.5123 9.00687 11.5135 9.002C11.5198 8.978 11.5065 8.93233 11.4625 8.889C11.4088 8.83633 11.4118 8.75567 11.4695 8.692L11.4928 8.66667L11.5088 8.69733C11.5335 8.74567 11.5588 8.76033 11.5698 8.758C11.5755 8.758 11.5788 8.74933 11.5801 8.74167L11.5335 8.49733H11.5905L11.5705 8.339H11.6435L11.6261 8.20733H11.7525L11.7408 8.074H11.8571C11.8571 8.03433 11.8665 7.94567 11.9128 7.89633C11.9231 7.88518 11.9355 7.87628 11.9494 7.87019C11.9633 7.86411 11.9783 7.86096 11.9935 7.86096C12.0086 7.86096 12.0236 7.86411 12.0375 7.87019C12.0514 7.87628 12.0639 7.88518 12.0741 7.89633C12.1205 7.94567 12.1288 8.03433 12.1298 8.074H12.2461L12.2345 8.20733H12.3611L12.3435 8.339H12.4168L12.3968 8.49733H12.4545L12.4058 8.73833C12.4058 8.744 12.4038 8.754 12.4108 8.75633C12.4248 8.76133 12.4568 8.74567 12.4815 8.697L12.5001 8.66667L12.5235 8.692C12.5811 8.75533 12.5841 8.83633 12.5308 8.889C12.4865 8.93233 12.4735 8.978 12.4798 9.002C12.4808 9.00688 12.4832 9.01137 12.4867 9.01493C12.4901 9.01848 12.4946 9.02094 12.4995 9.022C12.5258 9.029 12.5328 9.031 12.5741 8.905L12.5868 8.865L12.6148 8.89633C12.6375 8.92282 12.6539 8.95418 12.6626 8.988C12.6712 9.02182 12.672 9.05717 12.6648 9.09133L12.6625 9.09733L12.6528 9.11333C12.6275 9.15433 12.5605 9.26333 12.5811 9.319C12.5843 9.32651 12.5891 9.3332 12.5952 9.33858C12.6013 9.34395 12.6086 9.34785 12.6165 9.35C12.6428 9.35 12.6481 9.33433 12.6621 9.23967C12.6658 9.216 12.6698 9.189 12.6755 9.158L12.6831 9.11433L12.7165 9.14467C12.7534 9.18301 12.7785 9.23124 12.7887 9.28352C12.7989 9.33581 12.7937 9.38992 12.7738 9.43933C12.7605 9.47242 12.7436 9.50394 12.7235 9.53333C12.6944 9.57201 12.6772 9.61836 12.6741 9.66667C12.6741 9.746 12.7111 9.746 12.7231 9.746C12.7668 9.746 12.7881 9.694 12.8081 9.53967L12.8151 9.48433L12.8505 9.52767C12.9088 9.59967 12.9311 9.78733 12.8891 9.852C12.8678 9.88533 12.8485 9.91433 12.8311 9.94033C12.7588 10.049 12.7228 10.1037 12.7228 10.1553C12.7228 10.178 12.7325 10.1963 12.7451 10.198C12.7578 10.1997 12.7995 10.1753 12.8285 10.0673L12.8435 10.0113L12.8725 10.0613C12.9155 10.1363 12.8985 10.29 12.8978 10.2967C12.8958 10.351 12.8611 10.383 12.8278 10.4143C12.7945 10.4457 12.7578 10.479 12.7561 10.544L12.7578 10.8443ZM11.2835 10.7963H12.7098V10.5437C12.7113 10.5116 12.7198 10.4802 12.7349 10.4517C12.7499 10.4233 12.7711 10.3986 12.7968 10.3793C12.8268 10.3517 12.8501 10.3297 12.8518 10.2933C12.8567 10.2465 12.8567 10.1992 12.8518 10.1523C12.8111 10.243 12.7628 10.249 12.7408 10.246C12.7209 10.2414 12.7034 10.2296 12.6916 10.213C12.6798 10.1963 12.6746 10.1759 12.6768 10.1557C12.6768 10.089 12.7155 10.031 12.7931 9.914C12.8105 9.888 12.8295 9.859 12.8508 9.82633C12.8721 9.79367 12.8688 9.696 12.8461 9.623C12.8285 9.723 12.8001 9.79433 12.7251 9.79433C12.6961 9.79433 12.6281 9.78167 12.6281 9.667C12.6307 9.60911 12.6504 9.55329 12.6848 9.50667C12.702 9.48012 12.7166 9.45199 12.7285 9.42267C12.7412 9.38971 12.7466 9.35436 12.7441 9.31911C12.7417 9.28386 12.7316 9.24957 12.7145 9.21867C12.7131 9.22845 12.7118 9.23778 12.7105 9.24667C12.6961 9.34067 12.6878 9.39767 12.6135 9.39767H12.6061C12.5905 9.39366 12.5761 9.38601 12.5641 9.37535C12.552 9.36469 12.5427 9.35132 12.5368 9.33633C12.5081 9.259 12.5785 9.144 12.6125 9.089L12.6198 9.07633C12.6277 9.03944 12.6223 9.00094 12.6045 8.96767C12.5735 9.05667 12.5498 9.08567 12.4878 9.06767C12.4747 9.06446 12.4628 9.05773 12.4533 9.04821C12.4437 9.03869 12.437 9.02674 12.4338 9.01367C12.4215 8.967 12.4468 8.90433 12.4978 8.85433C12.5113 8.84091 12.5198 8.82318 12.5217 8.80419C12.5236 8.78521 12.5188 8.76616 12.5081 8.75033C12.4721 8.799 12.4281 8.812 12.3981 8.80133C12.3841 8.79599 12.3726 8.78553 12.3659 8.77206C12.3592 8.75858 12.3579 8.74309 12.3621 8.72867L12.3991 8.545H11.5921L11.6271 8.73967V8.743C11.6268 8.75727 11.6217 8.77103 11.6127 8.78212C11.6038 8.79322 11.5914 8.80103 11.5775 8.80433C11.5441 8.81033 11.5108 8.79067 11.4838 8.75067C11.4733 8.76654 11.4687 8.78556 11.4707 8.80447C11.4727 8.82339 11.4812 8.84101 11.4948 8.85433C11.5458 8.90433 11.5708 8.967 11.5585 9.01367C11.5553 9.02674 11.5485 9.03869 11.539 9.04821C11.5295 9.05773 11.5175 9.06446 11.5045 9.06767C11.4438 9.084 11.4198 9.056 11.3891 8.97C11.3718 9.00633 11.3578 9.05 11.3708 9.07233L11.3798 9.08767C11.4131 9.14267 11.4841 9.25767 11.4555 9.335C11.4497 9.35006 11.4404 9.36349 11.4283 9.37417C11.4162 9.38485 11.4018 9.39246 11.3861 9.39633H11.3788C11.3045 9.39633 11.2961 9.33933 11.2818 9.24533C11.2818 9.23633 11.2791 9.227 11.2778 9.217C11.2607 9.24796 11.2505 9.28231 11.2481 9.31761C11.2457 9.35292 11.251 9.38832 11.2638 9.42133C11.2756 9.45069 11.2902 9.47882 11.3075 9.50533C11.3419 9.55195 11.3616 9.60778 11.3641 9.66567C11.3641 9.78033 11.2975 9.79267 11.2671 9.79267C11.1921 9.79267 11.1638 9.72267 11.1461 9.62167C11.1238 9.69467 11.1205 9.79267 11.1415 9.825C11.1625 9.85733 11.1818 9.88633 11.1988 9.91233C11.2765 10.0293 11.3155 10.088 11.3155 10.1543C11.3177 10.1746 11.3124 10.195 11.3006 10.2117C11.2888 10.2283 11.2713 10.2401 11.2515 10.2447C11.2295 10.2477 11.1808 10.2417 11.1405 10.151C11.1354 10.1972 11.1354 10.2438 11.1405 10.29C11.1405 10.3283 11.1655 10.3503 11.1955 10.378C11.2211 10.3971 11.2422 10.4217 11.2572 10.4499C11.2723 10.4782 11.2809 10.5094 11.2825 10.5413L11.2835 10.7963ZM11.6415 8.49633H12.3515L12.3651 8.388H11.6261L11.6415 8.49633ZM11.6945 8.33667H12.2968L12.3075 8.25633H11.6821L11.6945 8.33667ZM11.8035 8.20333H12.1898L12.1968 8.123H11.7968L11.8035 8.20333ZM11.9081 8.07H12.0848C12.0828 8.02933 12.0731 7.96333 12.0421 7.93033C12.0364 7.92392 12.0293 7.91879 12.0215 7.91527C12.0136 7.91176 12.0051 7.90994 11.9965 7.90994C11.9878 7.90994 11.9793 7.91176 11.9715 7.91527C11.9636 7.91879 11.9565 7.92392 11.9508 7.93033C11.9178 7.96267 11.9085 8.02867 11.9065 8.06933L11.9081 8.07Z" fill="black"/>
<path d="M11.1436 12.6354H11.3229V13.46H11.1436V12.6354ZM12.6596 12.6354H12.8389V13.46H12.6596V12.6354Z" fill="white"/>
<path d="M12.8395 13.484H12.6601L12.6361 13.46V12.6353L12.6601 12.6113H12.8395L12.8635 12.6353V13.46L12.8395 13.484ZM12.6845 13.436H12.8155V12.6593H12.6845V13.436ZM11.3235 13.484H11.1441L11.1201 13.46V12.6353L11.1441 12.6113H11.3235L11.3475 12.6353V13.46L11.3235 13.484ZM11.1668 13.436H11.3001V12.6593H11.1668V13.436Z" fill="black"/>
<path d="M10.6279 10.7117V12.0947H13.3279V11.7967L13.3319 10.7117C13.3004 10.7235 13.2721 10.7427 13.2496 10.7677C13.227 10.7927 13.2108 10.8227 13.2023 10.8553V11.444H10.7669V10.8553C10.756 10.8227 10.738 10.7929 10.7142 10.7681C10.6904 10.7433 10.6614 10.724 10.6293 10.7117H10.6279Z" fill="white"/>
<path d="M13.3525 12.1187H10.6035V10.6767L10.6368 10.6893C10.6725 10.703 10.7046 10.7245 10.7309 10.7521C10.7573 10.7797 10.7772 10.8128 10.7892 10.849V10.8553V11.42H13.1788V10.8553C13.1872 10.8176 13.2048 10.7826 13.2301 10.7535C13.2555 10.7244 13.2877 10.7021 13.3238 10.6887L13.3572 10.6757L13.3525 12.1187ZM10.6525 12.0707H13.3055V11.7967L13.3095 10.7503C13.2692 10.775 13.2397 10.8141 13.2272 10.8597V11.468H10.7412V10.859C10.7249 10.8134 10.6932 10.775 10.6515 10.7503L10.6525 12.0707Z" fill="black"/>
<path d="M12.9624 13.7307C12.8744 13.6917 12.6821 13.5847 12.6821 13.4774V12.1177C12.7007 12.042 12.8037 11.997 12.8701 11.951H11.0787C11.1641 11.996 11.2591 12.0337 11.2931 12.1177V13.477C11.2931 13.5847 11.1411 13.6917 11.0527 13.7307H12.9624Z" fill="white"/>
<path d="M11.0526 13.755L11.043 13.709C11.1343 13.6687 11.269 13.5673 11.269 13.4773V12.1227C11.242 12.06 11.1746 12.0257 11.1023 11.9893L11.0666 11.9707L11.0776 11.9257H12.9443L12.883 11.969C12.8673 11.9803 12.8496 11.9913 12.8313 12.0023C12.776 12.0357 12.7186 12.0723 12.7053 12.12V13.4763C12.7053 13.56 12.8643 13.6607 12.972 13.708L12.962 13.754L11.0526 13.755ZM11.177 11.974C11.2374 12.0007 11.2864 12.0479 11.3153 12.1073L11.317 12.1163V13.4757C11.317 13.564 11.2306 13.6493 11.1456 13.7053H12.863C12.7756 13.655 12.658 13.5697 12.658 13.4757V12.109C12.673 12.048 12.7313 12.0067 12.7876 11.971L11.177 11.974Z" fill="black"/>
<path d="M13.2025 11.9643V10.9849H12.9569V10.8893H11.0149V10.9849H10.7695V11.9643H13.2025ZM12.5749 13.7309C12.4885 13.6919 12.3625 13.5849 12.3625 13.4776V12.3166L12.4335 12.2109H11.5492L11.6202 12.3166V13.4773C11.6202 13.5849 11.4942 13.6919 11.4075 13.7309H12.5749Z" fill="white"/>
<path d="M11.4081 13.755L11.3984 13.709C11.4814 13.6714 11.5968 13.57 11.5968 13.4774V12.324L11.5048 12.187H12.4794L12.3871 12.324V13.4774C12.3871 13.57 12.5024 13.6714 12.5854 13.709L12.5754 13.755H11.4081ZM11.5948 12.235L11.6448 12.3094V13.476C11.6448 13.5647 11.5718 13.65 11.4954 13.7057H12.4881C12.4121 13.65 12.3391 13.5647 12.3391 13.476V12.3094L12.3891 12.235H11.5948ZM13.2281 11.9884H10.7461V10.961H10.9914V10.8667H12.9814V10.9624H13.2271L13.2281 11.9884ZM10.7948 11.9404H13.1798V11.009H12.9338V10.9134H11.0394V11.009H10.7941L10.7948 11.9404Z" fill="black"/>
<path d="M11.7666 12.2113H12.2149V13.73H11.7666V12.2113Z" fill="white"/>
<path d="M12.2405 13.7547H11.7432V12.188H12.2405V13.7547ZM11.7925 13.7057H12.1925V12.2357H11.7925V13.7057Z" fill="black"/>
<path d="M12.4507 11.8773C12.4507 11.7773 12.7427 11.7726 12.8924 11.6876H11.0947C11.2447 11.7726 11.5281 11.7796 11.5281 11.8773L11.5887 12.0713L12.3331 12.1L12.4507 11.8773Z" fill="white"/>
<path d="M12.3337 12.1254L11.5893 12.0954L11.5677 12.0787L11.5057 11.8787C11.5057 11.8394 11.4023 11.812 11.3113 11.7887C11.2326 11.7719 11.1562 11.7454 11.084 11.7097L11.0957 11.665H12.8933L12.9053 11.7097C12.8321 11.7456 12.7546 11.772 12.6747 11.7884C12.5817 11.8117 12.4747 11.8384 12.4747 11.879L12.472 11.8897L12.3547 12.1137L12.3337 12.1254ZM11.6083 12.048L12.3203 12.0767L12.428 11.8707C12.4347 11.798 12.5407 11.7707 12.663 11.7404C12.699 11.7314 12.7353 11.722 12.77 11.7117H11.217C11.2503 11.7224 11.2877 11.7317 11.3233 11.741C11.4443 11.7727 11.5493 11.8 11.553 11.8744L11.6083 12.048Z" fill="black"/>
<path d="M12.8024 10.8203C12.8024 10.5753 12.8127 10.481 12.8877 10.481V11.26C12.7034 11.3266 12.5717 11.5626 12.5717 11.5626H11.4111C11.4111 11.5626 11.2794 11.327 11.0947 11.26V10.481C11.1877 10.481 11.1881 10.581 11.1881 10.8203H12.8024ZM12.8877 10.7203C12.8877 10.4396 13.1304 10.408 13.1304 10.408V10.658C13.0381 10.654 12.9937 10.737 12.9937 10.8603C12.9937 10.9836 13.0681 10.9853 13.0681 10.9853V11.695H12.8881L12.8877 10.7203Z" fill="white"/>
<path d="M13.0926 11.7183H12.8646V11.2963C12.7076 11.3733 12.5946 11.572 12.5936 11.5743L12.5866 11.5867H11.3976L11.3906 11.5743C11.3906 11.572 11.261 11.3457 11.0873 11.2827L11.0713 11.2767V10.457H11.0953C11.209 10.457 11.2126 10.5637 11.2126 10.7963H12.7793C12.7793 10.5793 12.788 10.457 12.8886 10.457H12.9126V10.5287C12.9367 10.491 12.9683 10.4586 13.0054 10.4336C13.0425 10.4086 13.0843 10.3915 13.1283 10.3833L13.1553 10.38V10.6823H13.1303C13.1182 10.681 13.1059 10.6824 13.0944 10.6864C13.0829 10.6904 13.0724 10.6968 13.0636 10.7053C13.034 10.7333 13.018 10.7887 13.018 10.8603C13.018 10.957 13.0673 10.9603 13.0693 10.9603L13.0916 10.962V10.9843L13.0926 11.7183ZM12.9123 11.6703H13.0456V11.0037C13.0166 10.9923 12.971 10.9593 12.971 10.8597C12.971 10.7733 12.992 10.7077 13.0316 10.67C13.0519 10.6497 13.0785 10.6368 13.107 10.6333V10.4367C13.0476 10.4537 12.9123 10.5153 12.9123 10.719V11.6703ZM11.4253 11.5387H12.5586C12.5883 11.4893 12.7046 11.3103 12.8646 11.2437V10.5133C12.836 10.5377 12.8273 10.62 12.8273 10.8203V10.8443H11.1646V10.8203C11.1646 10.614 11.1623 10.529 11.1193 10.5097V11.243C11.2796 11.3103 11.396 11.4893 11.4253 11.5387Z" fill="black"/>
<path d="M11.0958 10.7197C11.0958 10.439 10.8535 10.4073 10.8535 10.4073V10.6573C10.9458 10.6533 10.9902 10.7363 10.9902 10.8597C10.9902 10.983 10.9158 10.9847 10.9158 10.9847V11.6943H11.0958V10.7197Z" fill="white"/>
<path d="M11.1201 11.7183H10.8921V10.9613H10.9154C10.9171 10.9613 10.9664 10.9567 10.9664 10.8613C10.9664 10.7897 10.9504 10.7343 10.9208 10.7063C10.9119 10.698 10.9014 10.6917 10.8899 10.6877C10.8784 10.6838 10.8662 10.6823 10.8541 10.6833H10.8291V10.38L10.8561 10.3833C10.8588 10.3833 11.1194 10.4213 11.1194 10.7197L11.1201 11.7183ZM10.9401 11.6703H11.0734V10.7197C11.0734 10.515 10.9384 10.453 10.8791 10.437V10.6333C10.9078 10.6363 10.9347 10.6489 10.9554 10.669C10.9951 10.7067 11.0158 10.7723 11.0158 10.8587C11.0158 10.9587 10.9704 10.992 10.9414 11.0027L10.9401 11.6703Z" fill="black"/>
<path d="M12.7528 10.2447H11.2314V10.2047H12.7528V10.2447ZM12.7424 9.79268H11.2671V9.75268H12.7441L12.7424 9.79268ZM12.6168 9.39635H11.3714V9.35635H12.6168V9.39635ZM12.5191 9.07168H11.4731V9.03335H12.5191V9.07168ZM12.4311 8.80501H11.5744V8.76501H12.4311V8.80501Z" fill="black"/>
<path d="M12.4665 12.0553H11.5175V11.722H10.7695V11.674H13.2029V11.722H12.4665V12.0553ZM11.5665 12.0073H12.4202V11.7236H11.5665V12.0073Z" fill="black"/>
<path d="M11.4287 10.9667C11.578 11.146 11.5644 11.4507 11.562 11.63H12.4287C12.427 11.4507 12.413 11.146 12.562 10.9667H11.4287ZM11.916 8.91002L11.7974 8.84902V8.67402C11.846 8.68869 11.9004 8.69469 11.9057 8.77202C11.9227 8.66136 11.953 8.66702 12.001 8.62402C12.049 8.66669 12.0794 8.66136 12.0964 8.77202C12.1017 8.69469 12.1564 8.68869 12.205 8.67402V8.84902L12.086 8.91002H11.916Z" fill="white"/>
<path d="M12.4536 11.6526H11.538V11.594C11.5403 11.4143 11.544 11.1423 11.4093 10.9806L11.376 10.9413H12.6136L12.5803 10.9806C12.447 11.1426 12.4493 11.414 12.4516 11.5946L12.4536 11.6526ZM11.587 11.6046H12.4053V11.5953C12.403 11.4216 12.3996 11.1656 12.516 10.9893H11.476C11.5923 11.1653 11.589 11.4226 11.5866 11.5946L11.587 11.6046ZM11.9103 8.93264L11.7733 8.86231V8.64064L11.8193 8.65397C11.8494 8.6597 11.8774 8.67352 11.9003 8.69398C11.9121 8.66635 11.9321 8.64306 11.9576 8.62731C11.9672 8.62061 11.9763 8.61338 11.985 8.60564L12.001 8.59131L12.017 8.60564C12.0257 8.61338 12.0348 8.62061 12.0443 8.62731C12.07 8.64294 12.0902 8.66626 12.102 8.69398C12.1247 8.67366 12.1524 8.65984 12.1823 8.65397L12.229 8.64031V8.86231L12.0913 8.93331L11.9103 8.93264ZM11.8213 8.83264L11.9213 8.88431H12.0793L12.1793 8.83264V8.70397C12.142 8.71564 12.122 8.72764 12.119 8.77064L12.0713 8.77264C12.0596 8.69631 12.0436 8.68464 12.0146 8.66331L11.9996 8.65197C11.9949 8.65607 11.9899 8.65985 11.9846 8.66331C11.9556 8.68464 11.9396 8.69664 11.928 8.77264L11.8803 8.77064C11.8773 8.72631 11.8576 8.71431 11.82 8.70397L11.8213 8.83264Z" fill="black"/>
<path d="M11.9079 9.1957L11.7109 9.06003V8.90003C11.7799 8.91603 11.8576 8.92237 11.8653 9.00737C11.8893 8.88637 11.9319 8.8237 12.0009 8.77637C12.0693 8.8237 12.1126 8.88637 12.1366 9.00737C12.1443 8.92237 12.2219 8.91603 12.2913 8.90003V9.06103L12.0939 9.1967L11.9079 9.1957Z" fill="white"/>
<path d="M12.1002 9.21967H11.9002L11.6865 9.07267V8.86867L11.7379 8.88034C11.7825 8.88523 11.8246 8.90334 11.8589 8.93234C11.8795 8.86026 11.9248 8.79773 11.9869 8.75567L12.0005 8.74634L12.0142 8.75567C12.0763 8.79773 12.1216 8.86026 12.1422 8.93234C12.1765 8.90341 12.2186 8.88531 12.2632 8.88034L12.3149 8.86867V9.07267L12.1002 9.21967ZM11.9145 9.17167H12.0852L12.2662 9.04767V8.92867C12.2032 8.94234 12.1642 8.955 12.1595 9.00867L12.1122 9.01134C12.0925 8.91134 12.0595 8.85134 11.9999 8.80534C11.9402 8.85134 11.9072 8.91234 11.8875 9.01134L11.8402 9.00867C11.8355 8.955 11.7965 8.942 11.7339 8.92867V9.04767L11.9145 9.17167Z" fill="black"/>
<path d="M11.8941 9.64336L11.6674 9.44336V9.20669C11.7468 9.23002 11.8361 9.24002 11.8451 9.36436C11.8728 9.18636 11.9224 9.09436 12.0011 9.02502C12.0794 9.09436 12.1294 9.18636 12.1571 9.36436C12.1658 9.23969 12.2551 9.23102 12.3348 9.20636V9.44336L12.1078 9.64336H11.8941ZM12.3128 9.90769L12.1074 10.1917H11.8741L11.6691 9.90769H12.3128ZM11.5518 10.3844C11.6544 10.4404 11.6921 10.551 11.7031 10.762H12.2808C12.2918 10.552 12.3298 10.4404 12.4321 10.3844H11.5518Z" fill="white"/>
<path d="M12.3033 10.786H11.6803V10.7634C11.669 10.5517 11.6313 10.4547 11.541 10.4054L11.5527 10.3604H12.4333L12.445 10.4054C12.3547 10.4547 12.317 10.5517 12.306 10.7634L12.3033 10.786ZM11.7257 10.738H12.259C12.268 10.594 12.2923 10.4807 12.362 10.4084H11.6227C11.693 10.4807 11.7167 10.594 11.7257 10.738ZM12.1197 10.2157H11.863L11.623 9.88235H12.3597L12.1197 10.2157ZM11.8863 10.1677H12.0943L12.2667 9.93335H11.717L11.8863 10.1677ZM11.884 9.66768L11.6423 9.45535V9.17535L11.673 9.18468L11.6987 9.19168C11.7473 9.20502 11.804 9.22068 11.838 9.26968C11.857 9.16893 11.9082 9.07708 11.984 9.00802L12 8.99402L12.0157 9.00802C12.0916 9.07699 12.1428 9.16888 12.1617 9.26968C12.195 9.22035 12.2527 9.20502 12.3013 9.19168L12.3267 9.18435L12.3577 9.17535V9.45502L12.1167 9.66668L11.884 9.66768ZM11.6903 9.43435L11.9023 9.62035H12.1L12.3117 9.43435V9.24002C12.2427 9.25902 12.1887 9.27568 12.1823 9.36802L12.1347 9.37002C12.1113 9.22135 12.0727 9.12935 12.0013 9.06002C11.931 9.12935 11.892 9.22135 11.868 9.37002L11.8203 9.36802C11.8137 9.27568 11.7597 9.25902 11.6907 9.24035L11.6903 9.43435Z" fill="black"/>
<path d="M12.4403 9.90768V9.62268C12.3978 9.63192 12.3582 9.65169 12.3252 9.68016C12.2923 9.70863 12.267 9.74491 12.2517 9.78568C12.2517 9.69101 12.127 9.47268 11.991 9.36401C11.855 9.48568 11.7283 9.68301 11.731 9.78568C11.7157 9.74484 11.6904 9.7085 11.6573 9.68002C11.6243 9.65154 11.5846 9.63182 11.542 9.62268V9.90768H12.4403Z" fill="white"/>
<path d="M12.4406 9.93331H11.5406L11.5166 9.90931V9.62431L11.5473 9.60131C11.6152 9.61835 11.6754 9.65767 11.7183 9.71298C11.7553 9.59598 11.8669 9.44331 11.9739 9.34631H12.0046C12.1201 9.44446 12.2083 9.57076 12.2606 9.71298C12.303 9.65608 12.3642 9.61604 12.4333 9.59998L12.4636 9.62298V9.90798L12.4406 9.93331ZM11.5666 9.88365H12.4166V9.65565C12.3841 9.6666 12.3545 9.68467 12.3298 9.70855C12.3052 9.73243 12.2862 9.7615 12.2743 9.79365L12.2276 9.78565C12.2276 9.70098 12.1156 9.50331 11.9923 9.39598C11.8643 9.51631 11.7529 9.69598 11.7553 9.78498L11.7083 9.79265C11.6964 9.76066 11.6775 9.73176 11.6529 9.7081C11.6283 9.68444 11.5987 9.66662 11.5663 9.65598L11.5666 9.88365Z" fill="black"/>
<path d="M12.4837 10.3843V10.1C12.377 10.1266 12.3077 10.1843 12.2767 10.2626C12.2767 10.168 12.1404 9.94998 11.9914 9.84131C11.842 9.96298 11.7034 10.1603 11.706 10.2626C11.6807 10.188 11.606 10.1266 11.499 10.1V10.385L12.4837 10.3843Z" fill="white"/>
<path d="M12.4836 10.4083H11.4996L11.4756 10.3843V10.1L11.5056 10.0766C11.58 10.0924 11.6468 10.133 11.6953 10.1916C11.7346 10.074 11.8586 9.91897 11.9769 9.82263H12.0063C12.1321 9.91913 12.2294 10.0479 12.2879 10.1953C12.3355 10.1346 12.4031 10.0928 12.4786 10.0773L12.5083 10.1006V10.3856L12.4836 10.4083ZM11.5229 10.3603H12.4596V10.1313C12.424 10.141 12.3911 10.1586 12.3633 10.1828C12.3355 10.207 12.3135 10.2371 12.2989 10.271L12.2526 10.262C12.2526 10.1773 12.1283 9.97797 11.9923 9.8713C11.8509 9.99163 11.7276 10.1736 11.7299 10.2613L11.6833 10.27C11.6688 10.2362 11.6468 10.2062 11.6191 10.1822C11.5913 10.1581 11.5584 10.1408 11.5229 10.1313V10.3603Z" fill="black"/>
<path d="M12.6039 10.9693V10.6403C12.4987 10.672 12.4078 10.7391 12.3466 10.8303C12.3466 10.6523 12.1466 10.381 11.9916 10.292C11.8336 10.3833 11.6366 10.6637 11.6366 10.8303C11.5936 10.7733 11.5119 10.6747 11.3789 10.6403V10.9693H12.6039Z" fill="white"/>
<path d="M12.6045 10.9933H11.3795L11.3555 10.9693V10.6403L11.3855 10.6173C11.4771 10.6432 11.5586 10.6968 11.6188 10.7706C11.6551 10.593 11.8358 10.354 11.9791 10.2706H12.0031C12.1478 10.3543 12.3278 10.589 12.3638 10.7706C12.4241 10.6971 12.5056 10.6438 12.5971 10.618L12.6275 10.641V10.97L12.6045 10.9933ZM11.4045 10.9453H12.5805V10.6726C12.4932 10.7067 12.4185 10.7667 12.3665 10.8446L12.3231 10.8303C12.3231 10.6703 12.1401 10.4133 11.9921 10.32C11.8471 10.412 11.6611 10.6733 11.6611 10.8303L11.6178 10.845C11.565 10.7677 11.4904 10.7078 11.4035 10.673L11.4045 10.9453Z" fill="black"/>
<path d="M12.5331 11.7V11.3613C12.4161 11.4073 12.3808 11.5203 12.3441 11.597C12.3585 11.254 12.1508 10.8857 11.9928 10.792C11.8348 10.8857 11.6231 11.262 11.6415 11.597C11.6038 11.5207 11.5695 11.4073 11.4521 11.3613V11.7H12.5331Z" fill="white"/>
<path d="M12.5331 11.7234H11.4508L11.4268 11.6994V11.3614L11.4601 11.339C11.5302 11.3684 11.5866 11.4233 11.6178 11.4927C11.6408 11.1704 11.8374 10.8554 11.9794 10.7714H12.0041C12.1471 10.856 12.3404 11.165 12.3651 11.493C12.3964 11.4234 12.453 11.3684 12.5234 11.339L12.5568 11.3614V11.7L12.5331 11.7234ZM11.4761 11.6754H12.5094V11.4C12.4411 11.4407 12.4094 11.5107 12.3814 11.5737C12.3761 11.5857 12.3711 11.597 12.3661 11.607L12.3204 11.5957C12.3344 11.2624 12.1371 10.9177 11.9931 10.82C11.8451 10.92 11.6484 11.277 11.6658 11.5954L11.6204 11.6074C11.6144 11.5954 11.6084 11.5827 11.6024 11.569C11.5744 11.5077 11.5434 11.4394 11.4764 11.3994L11.4761 11.6754Z" fill="black"/>
<path d="M12.4495 12.2113V11.8733C12.3269 11.9023 12.3192 11.9477 12.2802 12.0233C12.2945 11.8187 12.1495 11.585 11.9915 11.49C11.8332 11.5837 11.6882 11.8173 11.7029 12.0233C11.6639 11.9477 11.6589 11.9023 11.5332 11.8733V12.2113H12.4495Z" fill="white"/>
<path d="M12.4744 12.2353H11.5098V11.843L11.5391 11.8496C11.6221 11.869 11.6581 11.8966 11.6824 11.932C11.6972 11.8387 11.7313 11.7495 11.7825 11.6701C11.8337 11.5908 11.9009 11.5229 11.9798 11.471L11.9921 11.4636L12.0041 11.471C12.0832 11.523 12.1505 11.591 12.2018 11.6707C12.2531 11.7503 12.2871 11.8397 12.3018 11.9333C12.3264 11.8973 12.3628 11.8696 12.4448 11.8503L12.4744 11.843V12.2353ZM11.5578 12.1873H12.4244V11.9046C12.3534 11.9266 12.3391 11.956 12.3134 12.0083L12.3004 12.0343L12.2551 12.0216C12.2688 11.8286 12.1314 11.6106 11.9904 11.5196C11.8494 11.6106 11.7118 11.8286 11.7254 12.0216L11.6804 12.0343C11.6751 12.0243 11.6704 12.0146 11.6661 12.0056C11.6414 11.9546 11.6278 11.926 11.5561 11.9056L11.5578 12.1873Z" fill="black"/>
<path d="M7.17915 13.4647V12.4427C7.14582 12.3127 7.03515 12.1977 6.95215 12.176V11.276L7.13915 11.376L7.35248 12.3167V13.4647H7.17915Z" fill="white"/>
<path d="M7.37607 13.4886H7.15473V12.4459C7.1214 12.3246 7.01873 12.2179 6.94507 12.1976L6.92773 12.1926V11.2333L7.16107 11.3586L7.3774 12.3153L7.37607 13.4886ZM7.20273 13.4406H7.32807V12.3193L7.11773 11.3919L6.97573 11.3149V12.1573C7.06173 12.1906 7.16807 12.3056 7.20173 12.4369V12.4426L7.20273 13.4406Z" fill="black"/>
<path d="M7.17915 13.4686V12.4426C7.14582 12.3126 7.03515 12.1976 6.95215 12.1759V11.2123C7.07748 11.2123 7.13915 11.3759 7.13915 11.3759L7.35248 12.3166V13.4609L7.17915 13.4686Z" fill="white"/>
<path d="M7.15473 13.494V12.446C7.1214 12.3247 7.01873 12.218 6.94507 12.1977L6.92773 12.1927V11.1884H6.95173C7.09207 11.1884 7.1584 11.3604 7.16107 11.3677L7.37607 12.3167V13.4834L7.15473 13.494ZM6.97573 12.1574C7.06173 12.1907 7.16807 12.3057 7.20173 12.4367V12.4427V13.4427L7.32707 13.437V12.3194L7.11407 11.3814C7.11407 11.3814 7.06573 11.258 6.97473 11.239L6.97573 12.1574Z" fill="black"/>
<path d="M7.0459 13.7307C7.13223 13.6917 7.25823 13.5847 7.25823 13.4774V12.2001L7.1999 12.0947H9.37623L9.29023 12.2001V13.4774C9.29023 13.5847 9.37656 13.6917 9.46323 13.7307H7.0459Z" fill="white"/>
<path d="M9.46347 13.755H7.04613L7.03613 13.709C7.11947 13.6713 7.23447 13.57 7.23447 13.4773V12.2063L7.15813 12.0707H9.4248L9.3138 12.2083V13.4773C9.3138 13.5773 9.39613 13.6743 9.4728 13.709L9.46347 13.755ZM7.13347 13.7067H9.38313C9.34877 13.6787 9.32063 13.6438 9.30054 13.6044C9.28045 13.5649 9.26884 13.5216 9.26647 13.4773V12.1917L9.32513 12.1187H7.24013L7.28247 12.1937V13.4773C7.28247 13.5667 7.20947 13.6513 7.13347 13.7067Z" fill="black"/>
<path d="M9.02378 13.7307C8.93745 13.6917 8.81145 13.5847 8.81145 13.4774V12.2624L8.99245 12.0957H7.51311L7.69411 12.2624V13.4774C7.69411 13.5847 7.56811 13.6917 7.48145 13.7307H9.02378Z" fill="white"/>
<path d="M9.02443 13.755H7.4821L7.47243 13.709C7.55543 13.6713 7.67243 13.57 7.67243 13.4773V12.273L7.4541 12.0707H9.05577L8.83777 12.2733V13.4777C8.83777 13.5703 8.9531 13.6717 9.03777 13.7093L9.02443 13.755ZM7.56944 13.7067H8.9361C8.8601 13.6513 8.7871 13.566 8.7871 13.4773V12.252L8.9311 12.1187H7.57477L7.71877 12.252V13.4773C7.71877 13.5667 7.64577 13.6513 7.56944 13.7067Z" fill="black"/>
<path d="M8.81648 13.7306C8.72981 13.6916 8.60381 13.5846 8.60381 13.4773V12.3789L8.72248 12.2123H7.78248L7.90114 12.3789V13.4773C7.90114 13.5846 7.77514 13.6916 7.68848 13.7306H8.81648Z" fill="white"/>
<path d="M8.81638 13.755H7.68838L7.67871 13.709C7.76171 13.6713 7.87704 13.57 7.87704 13.4773V12.3866L7.73604 12.1866H8.76938L8.62838 12.3866V13.4773C8.62838 13.57 8.74371 13.6713 8.82838 13.709L8.81638 13.755ZM7.77571 13.7066H8.72904C8.65271 13.6513 8.57971 13.566 8.57971 13.4773V12.3713L8.67604 12.235H7.82871L7.92504 12.3713V13.4773C7.92504 13.5666 7.85204 13.6513 7.77571 13.7066Z" fill="black"/>
<path d="M8.02832 12.2113H8.47765V13.731H8.02832V12.2113Z" fill="white"/>
<path d="M8.49991 13.755H8.00391V12.1884H8.49991V13.755ZM8.05057 13.707H8.45057V12.2354H8.05057V13.707Z" fill="black"/>
<path d="M7.41667 12.6353H7.59601V13.46H7.41667V12.6353ZM8.95434 12.6353H9.13301V13.46H8.95367L8.95434 12.6353ZM7.26367 11.2443H7.47967V12.0897H7.26367V11.2443ZM7.26367 11.0853H7.47867V11.2423H7.26367V11.0853Z" fill="white"/>
<path d="M9.13326 13.4839H8.95392L8.92992 13.4599V12.6353L8.95392 12.6113H9.13326L9.15726 12.6353V13.4599L9.13326 13.4839ZM8.97792 13.4359H9.10926V12.6593H8.97792V13.4359ZM7.59559 13.4839H7.41626L7.39226 13.4599V12.6353L7.41626 12.6113H7.59559L7.61959 12.6353V13.4599L7.59559 13.4839ZM7.44026 13.4359H7.57159V12.6593H7.44026V13.4359ZM7.47926 12.1136H7.26326L7.23926 12.0896V11.0853L7.26326 11.0613H7.47826L7.50226 11.0853V12.0896L7.47926 12.1136ZM7.28792 12.0666H7.45459V11.2683H7.28792V12.0666ZM7.28792 11.2193H7.45459V11.1103H7.28792V11.2193Z" fill="black"/>
<path d="M9.04102 11.4264H9.34902V12.0791H9.04102V11.4264Z" fill="white"/>
<path d="M9.34865 12.1051H9.04065L9.01465 12.0791V11.4264L9.04065 11.4004H9.34865L9.37465 11.4264V12.0791L9.34865 12.1051ZM9.06665 12.0534H9.32265V11.4534H9.06665V12.0534Z" fill="black"/>
<path d="M7.47701 12.0834V10.6364C7.53867 10.6364 7.54801 10.8484 7.68934 10.8484C7.76301 10.8484 7.75601 10.7607 7.71401 10.689C7.67734 10.6257 7.63201 10.538 7.69367 10.375C7.73567 10.4997 7.84934 10.5394 7.82701 10.461C7.79101 10.3277 7.68701 10.3047 7.76501 10.0944C7.79201 10.2684 7.90367 10.261 7.87667 10.161C7.84601 10.047 7.78301 10 7.86067 9.83938C7.90434 10.022 7.96334 10.0114 7.96334 9.89805C7.96334 9.73138 7.95701 9.55005 8.17334 9.48338C8.17334 9.48338 8.18601 9.32971 8.26401 9.32971C8.34201 9.32971 8.35467 9.48338 8.35467 9.48338C8.57134 9.55005 8.56467 9.73071 8.56467 9.89805C8.56467 10.0114 8.62367 10.022 8.66734 9.83971C8.74534 10.0004 8.68201 10.047 8.65167 10.161C8.62434 10.261 8.73601 10.2697 8.76301 10.0944C8.84101 10.303 8.73734 10.325 8.70101 10.461C8.68034 10.5394 8.79367 10.4997 8.83601 10.375C8.89734 10.538 8.85201 10.6257 8.81534 10.689C8.77434 10.7607 8.76634 10.8484 8.84001 10.8484C8.98134 10.8484 8.99067 10.6364 9.05234 10.6364V12.0834H7.47701ZM7.13867 10.9904V12.0944H7.26434V10.9877C7.24563 10.9753 7.22355 10.9689 7.20109 10.9693C7.17862 10.9698 7.15684 10.9772 7.13867 10.9904Z" fill="white"/>
<path d="M7.28792 12.1183H7.11426V10.9787L7.12359 10.9713C7.14527 10.9553 7.1713 10.9462 7.19826 10.9452C7.22522 10.9443 7.25184 10.9515 7.27459 10.966L7.28792 10.9727V12.1183ZM7.16226 12.0703H7.23992V11.0037C7.22799 10.9972 7.21465 10.9939 7.20109 10.9939C7.18754 10.9939 7.1742 10.9972 7.16226 11.0037V12.0703ZM9.07726 12.1073H7.45259V10.6123H7.47659C7.51626 10.6123 7.53592 10.6527 7.55859 10.6997C7.58692 10.758 7.61892 10.8243 7.68892 10.8243C7.70892 10.8243 7.71359 10.816 7.71559 10.8127C7.72759 10.7917 7.71792 10.746 7.69259 10.701C7.65926 10.643 7.60292 10.5457 7.67059 10.3677L7.69426 10.305L7.71592 10.3687C7.74059 10.4413 7.78859 10.476 7.80626 10.4787C7.80618 10.4753 7.80562 10.4719 7.80459 10.4687C7.79467 10.4344 7.77997 10.4018 7.76092 10.3717C7.72226 10.305 7.68592 10.2427 7.74326 10.089L7.77659 10.003L7.79092 10.0937C7.80326 10.174 7.83359 10.2047 7.84792 10.2093C7.85259 10.2093 7.85392 10.2093 7.85426 10.2093C7.85459 10.2093 7.86192 10.192 7.85426 10.1687C7.84741 10.1446 7.83917 10.1211 7.82959 10.098C7.80126 10.025 7.77626 9.96199 7.83992 9.83133L7.86926 9.77099L7.88492 9.83766C7.90459 9.91999 7.92392 9.94799 7.93226 9.95666C7.93845 9.93902 7.94117 9.92034 7.94026 9.90166V9.88766C7.94026 9.72566 7.94026 9.54266 8.15226 9.46899C8.15826 9.42399 8.18192 9.30933 8.26492 9.30933C8.34792 9.30933 8.37159 9.42399 8.37759 9.46899C8.59026 9.54266 8.58992 9.72566 8.58959 9.88766V9.89999C8.58868 9.91867 8.59139 9.93735 8.59759 9.95499C8.60592 9.94633 8.62526 9.91833 8.64492 9.83599L8.66059 9.76933L8.68992 9.82966C8.75359 9.96099 8.72892 10.024 8.70026 10.0963C8.69079 10.1194 8.68267 10.143 8.67592 10.167C8.66959 10.1903 8.67292 10.2043 8.67592 10.2077C8.67892 10.211 8.67759 10.2097 8.68226 10.2077C8.69659 10.2027 8.72692 10.172 8.73926 10.0917L8.75359 10.001L8.78692 10.087C8.84426 10.2407 8.80792 10.3033 8.76959 10.3697C8.75055 10.3998 8.73575 10.4325 8.72559 10.4667C8.72515 10.47 8.72515 10.4733 8.72559 10.4767C8.74359 10.474 8.79226 10.4397 8.81592 10.3667L8.83759 10.303L8.86126 10.366C8.92792 10.545 8.87259 10.6423 8.83926 10.6993C8.81392 10.7433 8.80426 10.79 8.81659 10.811C8.81826 10.8143 8.82326 10.8227 8.84292 10.8227C8.91292 10.8227 8.94492 10.756 8.97326 10.6983C8.99626 10.6513 9.01592 10.6107 9.05526 10.6107H9.07926L9.07726 12.1073ZM7.49992 12.0593H9.02859V10.6927C9.02326 10.7027 9.01792 10.7137 9.01392 10.722C8.98292 10.786 8.94026 10.8737 8.84026 10.8737C8.82697 10.8742 8.81378 10.8712 8.80205 10.8649C8.79033 10.8587 8.7805 10.8494 8.77359 10.838C8.74792 10.7937 8.76859 10.7267 8.79626 10.6783C8.8192 10.644 8.83437 10.6052 8.84071 10.5644C8.84704 10.5236 8.84438 10.482 8.83292 10.4423C8.79559 10.503 8.74226 10.5353 8.70692 10.5247C8.68659 10.5187 8.66859 10.4973 8.67959 10.458C8.6907 10.4197 8.70708 10.3831 8.72826 10.3493C8.74532 10.3262 8.75739 10.2997 8.76371 10.2717C8.77002 10.2436 8.77043 10.2146 8.76492 10.1863C8.75914 10.2019 8.75025 10.2162 8.73879 10.2283C8.72733 10.2404 8.71354 10.25 8.69826 10.2567C8.6891 10.2603 8.67911 10.2612 8.66944 10.2594C8.65977 10.2575 8.65081 10.253 8.64359 10.2463C8.63335 10.2343 8.62654 10.2198 8.6239 10.2042C8.62126 10.1887 8.62288 10.1727 8.62859 10.158C8.63603 10.1323 8.64482 10.1071 8.65492 10.0823C8.68209 10.0311 8.68796 9.9712 8.67126 9.91566C8.64859 9.97966 8.62159 10.0103 8.59059 10.0063C8.57192 10.0043 8.54092 9.98766 8.54092 9.90033V9.88633C8.54092 9.72266 8.54092 9.56833 8.34792 9.50833L8.33226 9.50366V9.48766C8.32892 9.44466 8.30792 9.35599 8.26559 9.35599C8.22326 9.35599 8.20126 9.45966 8.19892 9.48733V9.50366L8.18359 9.50833C7.98992 9.56833 7.98992 9.72266 7.99026 9.88633V9.89999C7.99026 9.98733 7.95926 10.004 7.94059 10.006C7.90992 10.0097 7.88292 9.97933 7.85992 9.91499C7.84351 9.97056 7.84937 10.0303 7.87626 10.0817C7.88646 10.1065 7.89525 10.1319 7.90259 10.1577C7.9083 10.1724 7.90992 10.1883 7.90728 10.2039C7.90464 10.2194 7.89784 10.234 7.88759 10.246C7.88032 10.2526 7.87134 10.257 7.86168 10.2588C7.85202 10.2606 7.84206 10.2596 7.83292 10.256C7.81764 10.2494 7.80385 10.2397 7.79239 10.2276C7.78094 10.2156 7.77205 10.2013 7.76626 10.1857C7.76082 10.2139 7.76128 10.243 7.76758 10.2711C7.77389 10.2992 7.78592 10.3257 7.80292 10.349C7.82424 10.3827 7.84062 10.4193 7.85159 10.4577C7.86259 10.4987 7.84492 10.5197 7.82459 10.5243C7.78926 10.535 7.73559 10.5027 7.69826 10.442C7.68689 10.4816 7.68428 10.5233 7.69061 10.564C7.69694 10.6048 7.71206 10.6437 7.73492 10.678C7.76259 10.726 7.78326 10.7933 7.75759 10.8377C7.75071 10.849 7.74089 10.8584 7.72916 10.8646C7.71742 10.8709 7.70422 10.8739 7.69092 10.8733C7.59092 10.8733 7.54826 10.7857 7.51726 10.7217C7.51326 10.713 7.50792 10.7023 7.50259 10.6923L7.49992 12.0593Z" fill="black"/>
<path d="M7.14258 11.7046C7.29824 11.7843 7.45224 11.8763 7.49124 12.0943H7.14258V11.7046ZM9.30024 11.3743V12.0946H9.40024V11.3726C9.38469 11.3648 9.36746 11.3608 9.35004 11.3611C9.33262 11.3614 9.31553 11.3659 9.30024 11.3743Z" fill="white"/>
<path d="M9.42609 12.1187H9.27643V11.362L9.28643 11.3547C9.30547 11.3437 9.32694 11.3376 9.34892 11.3369C9.37091 11.3362 9.39272 11.3409 9.41243 11.3507L9.42609 11.3574V12.1187ZM9.32609 12.0707H9.37976V11.389C9.36232 11.3833 9.34353 11.3833 9.32609 11.389V12.0707ZM7.52109 12.1184H7.12109V11.6667L7.15443 11.6844C7.31509 11.7667 7.47543 11.8657 7.51576 12.0914L7.52109 12.1184ZM7.16643 12.0704H7.46176C7.42076 11.9007 7.30143 11.816 7.16643 11.7444V12.0704Z" fill="black"/>
<path d="M9.40238 11.7C9.24671 11.7793 9.09271 11.8716 9.05371 12.0896H9.40238V11.7Z" fill="white"/>
<path d="M9.42637 12.113H9.02637L9.03137 12.0847C9.0717 11.859 9.23137 11.76 9.3927 11.678L9.4277 11.66L9.42637 12.113ZM9.08303 12.0667H9.37837V11.7407C9.24337 11.8107 9.1237 11.8954 9.08303 12.0667Z" fill="black"/>
<path d="M8.37364 10.0167L8.46431 9.94071V9.84304C8.44884 9.84403 8.43385 9.8488 8.42066 9.85694C8.40746 9.86508 8.39647 9.87633 8.38864 9.88971C8.37813 9.85793 8.36135 9.82858 8.33931 9.80339C8.31727 9.7782 8.29041 9.75768 8.26031 9.74304C8.23035 9.75723 8.20357 9.77734 8.18157 9.80214C8.15957 9.82694 8.14282 9.85593 8.13231 9.88738C8.12431 9.87433 8.11323 9.86346 8.10003 9.85573C8.08683 9.848 8.07193 9.84364 8.05664 9.84304V9.94071L8.14731 10.0167H8.37364Z" fill="white"/>
<path d="M8.3822 10.0406H8.13854L8.0332 9.95161V9.81628L8.05987 9.81894C8.08419 9.81966 8.10761 9.82832 8.12654 9.84361C8.154 9.79044 8.19798 9.74763 8.25187 9.72161L8.26254 9.71594L8.27354 9.72161C8.32768 9.74811 8.37161 9.79168 8.39854 9.84561C8.41714 9.82949 8.44062 9.8201 8.4652 9.81894L8.49154 9.81628V9.95161L8.3822 10.0406ZM8.15587 9.99261H8.36654L8.44187 9.92928V9.87328C8.42846 9.88083 8.41704 9.89145 8.40854 9.90428L8.38054 9.94061L8.36654 9.89694C8.34885 9.84284 8.31117 9.79753 8.2612 9.77028C8.21143 9.79666 8.17371 9.84118 8.15587 9.89461L8.14187 9.93861L8.1142 9.90194C8.10605 9.88924 8.09451 9.87908 8.08087 9.87261V9.92928L8.15587 9.99261Z" fill="black"/>
<path d="M8.42231 10.2614L8.46464 10.17V10.043C8.44909 10.0442 8.43406 10.0491 8.42087 10.0574C8.40768 10.0657 8.39673 10.0772 8.38897 10.0907C8.37854 10.0586 8.36181 10.029 8.33978 10.0034C8.31774 9.9779 8.29084 9.95702 8.26064 9.94202C8.23054 9.95651 8.20368 9.97695 8.18168 10.0021C8.15968 10.0272 8.143 10.0566 8.13264 10.0883C8.12471 10.0751 8.11362 10.064 8.10036 10.0561C8.08709 10.0482 8.07207 10.0437 8.05664 10.043V10.17L8.09897 10.2614H8.42231Z" fill="white"/>
<path d="M8.0832 10.2853L8.0332 10.17V10.0167L8.05987 10.0193C8.08417 10.0202 8.10755 10.0288 8.12654 10.044C8.15388 9.99054 8.19771 9.9473 8.25154 9.92067L8.26254 9.91467L8.27354 9.92067C8.32763 9.94787 8.37148 9.99184 8.39854 10.046C8.41719 10.0299 8.44062 10.0204 8.4652 10.019L8.49154 10.0163L8.4892 10.18L8.44054 10.2853H8.0832ZM8.0802 10.165L8.11354 10.2373H8.4062L8.43954 10.1647V10.0737C8.42615 10.0814 8.41474 10.0921 8.4062 10.105L8.3782 10.1423L8.3642 10.0977C8.34668 10.0431 8.30901 9.99718 8.25887 9.96934C8.20881 9.99633 8.17108 10.0416 8.15354 10.0957L8.13954 10.1397L8.11154 10.1027C8.10333 10.0899 8.0918 10.0797 8.0782 10.073L8.0802 10.165Z" fill="black"/>
<path d="M8.42839 10.5927L8.56172 10.4284V10.2667C8.51239 10.272 8.48572 10.2917 8.44905 10.347C8.41805 10.236 8.34905 10.2117 8.25872 10.1577C8.16772 10.2117 8.09939 10.232 8.06872 10.343C8.03205 10.2877 8.00539 10.2724 7.95605 10.2667V10.4287L8.08939 10.593L8.42839 10.5927Z" fill="white"/>
<path d="M8.44026 10.6167H8.08126L7.93359 10.4371V10.2394L7.96026 10.2424C7.97985 10.2435 7.999 10.2486 8.01659 10.2573C8.03417 10.266 8.04982 10.2782 8.06259 10.2931C8.09593 10.2224 8.14793 10.1931 8.20759 10.1597C8.22059 10.1524 8.23426 10.1451 8.24826 10.1367L8.26026 10.1294L8.27259 10.1367L8.30593 10.1564C8.36826 10.1921 8.42326 10.2231 8.45693 10.2964C8.46932 10.2808 8.48482 10.268 8.50243 10.2587C8.52005 10.2494 8.5394 10.2438 8.55926 10.2424L8.58593 10.2394V10.4371L8.44026 10.6167ZM8.10393 10.5687H8.41759L8.53959 10.4201V10.2957C8.50991 10.3085 8.48562 10.3313 8.47093 10.3601L8.44226 10.4037L8.42793 10.3531C8.40359 10.2661 8.35593 10.2391 8.28393 10.1984L8.26059 10.1851L8.23126 10.2017C8.16259 10.2401 8.11693 10.2651 8.09359 10.3491L8.07959 10.3997L8.05059 10.3561C8.0365 10.3276 8.01187 10.3057 7.98193 10.2951V10.4201L8.10393 10.5687Z" fill="black"/>
<path d="M8.46674 10.9184C8.46674 10.9184 8.62374 10.7814 8.63341 10.7061V10.5334C8.60052 10.5345 8.56841 10.5436 8.53992 10.5601C8.51143 10.5765 8.48744 10.5998 8.47008 10.6277C8.43208 10.4841 8.37208 10.4441 8.25974 10.3744C8.14708 10.4441 8.08741 10.4841 8.04908 10.6277C8.03171 10.5998 8.00772 10.5765 7.97923 10.5601C7.95074 10.5436 7.91863 10.5345 7.88574 10.5334V10.7067C7.90541 10.7821 8.05241 10.9191 8.05241 10.9191L8.46674 10.9184Z" fill="white"/>
<path d="M8.47661 10.9423H8.04328L8.03661 10.9356C8.02095 10.9213 7.88428 10.7916 7.86328 10.7119V10.7059V10.5059L7.88995 10.5093C7.94692 10.5119 8.00086 10.5357 8.04128 10.5759C8.08161 10.4613 8.14328 10.4186 8.24861 10.3536L8.26128 10.3459L8.27395 10.3536C8.37895 10.4203 8.44061 10.4616 8.48128 10.5759C8.52154 10.5357 8.5754 10.5119 8.63228 10.5093L8.65895 10.5059V10.7059C8.64861 10.7909 8.50128 10.9216 8.48461 10.9363L8.47661 10.9423ZM8.06195 10.8943H8.45861C8.51695 10.8423 8.60461 10.7493 8.61028 10.7029V10.5606C8.58567 10.5638 8.56211 10.5725 8.54142 10.5862C8.52073 10.5999 8.50346 10.6182 8.49095 10.6396L8.46161 10.6859L8.44761 10.6329C8.41428 10.5056 8.36461 10.4663 8.26028 10.4019C8.15561 10.4669 8.10661 10.5056 8.07261 10.6329L8.05861 10.6859L8.02928 10.6396C8.0168 10.6182 7.99959 10.6 7.97896 10.5863C7.95833 10.5726 7.93484 10.5638 7.91028 10.5606V10.7026C7.92661 10.7563 8.01928 10.8533 8.06195 10.8943Z" fill="black"/>
<path d="M8.53463 11.5193C8.53463 11.5193 8.74962 11.2813 8.75462 11.1887V10.9183C8.67429 10.9293 8.59829 10.985 8.53863 11.0957C8.48829 10.872 8.40929 10.716 8.26029 10.6077C8.11129 10.716 8.03229 10.872 7.98163 11.0957C7.92229 10.9847 7.84596 10.929 7.76562 10.918V11.1883C7.78096 11.2813 7.98563 11.5193 7.98563 11.5193H8.53463Z" fill="white"/>
<path d="M8.54552 11.5433H7.97485L7.96785 11.535C7.94619 11.51 7.75819 11.289 7.74219 11.1923V10.8923L7.76952 10.896C7.81135 10.9035 7.8511 10.9198 7.88616 10.9438C7.92121 10.9679 7.95076 10.999 7.97285 11.0353C8.02852 10.823 8.11219 10.6877 8.24685 10.5897L8.26085 10.5793L8.27485 10.5897C8.40819 10.6877 8.49319 10.823 8.54885 11.0353C8.57095 10.999 8.6005 10.9679 8.63555 10.9438C8.6706 10.9198 8.71036 10.9035 8.75219 10.896L8.77919 10.8923V11.1903C8.77385 11.2903 8.57585 11.512 8.55319 11.537L8.54552 11.5433ZM7.99685 11.4953H8.52419C8.60552 11.4043 8.72785 11.2467 8.73119 11.1873V10.9477C8.66452 10.967 8.60619 11.0213 8.56052 11.107L8.53019 11.1637L8.51585 11.101C8.46485 10.876 8.38819 10.736 8.26085 10.6377C8.13319 10.736 8.05652 10.876 8.00585 11.101L7.99152 11.164L7.96119 11.107C7.91519 11.0213 7.85652 10.9667 7.79019 10.9477V11.1883C7.79985 11.2523 7.93685 11.4243 7.99685 11.4953Z" fill="black"/>
<path d="M8.53463 11.8747C8.53463 11.8747 8.71862 11.6877 8.75462 11.6063V11.3363C8.67429 11.3473 8.59829 11.403 8.53863 11.5137C8.48829 11.29 8.40929 11.162 8.26029 11.0533C8.11129 11.162 8.03229 11.29 7.98163 11.5137C7.92229 11.4027 7.84596 11.347 7.76562 11.336V11.6063C7.81229 11.6877 7.98563 11.8747 7.98563 11.8747H8.53463Z" fill="white"/>
<path d="M8.54552 11.9H7.97585L7.96852 11.8924C7.96152 11.8847 7.79285 11.7024 7.74552 11.6197L7.74219 11.6144V11.31L7.76952 11.3137C7.81135 11.3212 7.85111 11.3375 7.88616 11.3615C7.92121 11.3855 7.95076 11.4167 7.97285 11.453C8.02485 11.259 8.10452 11.139 8.24685 11.0354L8.26085 11.025L8.27485 11.0354C8.41719 11.139 8.49685 11.259 8.54885 11.453C8.57095 11.4167 8.6005 11.3855 8.63555 11.3615C8.6706 11.3375 8.71036 11.3212 8.75219 11.3137L8.77919 11.31L8.77719 11.6177C8.73985 11.7017 8.56019 11.8844 8.55252 11.893L8.54552 11.9ZM7.99685 11.852H8.52519C8.57885 11.797 8.70052 11.665 8.73119 11.6024V11.3667C8.66452 11.386 8.60652 11.4404 8.56052 11.526L8.53019 11.5827L8.51585 11.52C8.46885 11.3117 8.39652 11.1867 8.26085 11.0844C8.12485 11.1877 8.05285 11.3117 8.00585 11.52L7.99152 11.583L7.96119 11.526C7.91519 11.4404 7.85652 11.3857 7.79019 11.3667V11.6C7.8535 11.688 7.92254 11.7718 7.99685 11.8507V11.852Z" fill="black"/>
<path d="M8.60858 12.0814C8.55525 11.8481 8.50858 11.6747 8.25058 11.4994C7.99224 11.6747 7.94624 11.8481 7.89258 12.0814H8.60858Z" fill="white"/>
<path d="M8.63897 12.1053H7.8623L7.86897 12.076C7.91964 11.8557 7.96364 11.6653 8.23564 11.4793L8.24897 11.4703L8.2623 11.4793C8.53597 11.6653 8.57997 11.8557 8.62897 12.076L8.63897 12.1053ZM7.92264 12.0573H8.57864C8.5263 11.835 8.47464 11.685 8.25064 11.5283C8.02664 11.685 7.97497 11.835 7.92264 12.0573Z" fill="black"/>
<path d="M8.74165 12.2113V11.8733C8.62465 11.9193 8.51832 11.9873 8.47932 12.063C8.43565 11.8753 8.35165 11.7926 8.24598 11.679C8.14132 11.7926 8.07098 11.8753 8.02732 12.063C7.98832 11.9873 7.88232 11.9193 7.76465 11.8733V12.2113H8.74165Z" fill="white"/>
<path d="M8.76621 12.2353H7.74121V11.838L7.77454 11.851C7.86677 11.8831 7.95021 11.9363 8.01821 12.0063C8.06254 11.8517 8.12954 11.7707 8.22921 11.6627L8.24688 11.6437L8.28021 11.681C8.36688 11.7747 8.44288 11.8563 8.48788 12.0067C8.55589 11.9364 8.63947 11.8831 8.73188 11.851L8.76521 11.838L8.76621 12.2353ZM7.78988 12.1873H8.71821V11.909C8.61088 11.956 8.53088 12.0167 8.50121 12.0757L8.47121 12.1337L8.45654 12.07C8.41688 11.8993 8.34188 11.8183 8.24721 11.716C8.15288 11.8193 8.09188 11.899 8.05188 12.07L8.03721 12.1337L8.00721 12.0757C7.97754 12.018 7.89754 11.9577 7.78988 11.909V12.1873Z" fill="black"/>
<path d="M16.8221 13.4647V12.4427C16.8554 12.3127 16.9661 12.1977 17.0491 12.176V11.276L16.8621 11.376L16.6484 12.3167V13.4647H16.8221Z" fill="white"/>
<path d="M16.8467 13.4886H16.625V12.3113L16.841 11.36L17.0743 11.2346V12.1926L17.0567 12.1976C16.9833 12.218 16.8797 12.3246 16.8473 12.446L16.8467 13.4886ZM16.673 13.4406H16.8003V12.437C16.8337 12.3056 16.9403 12.1916 17.0263 12.1573V11.315L16.8843 11.392L16.6737 12.3193L16.673 13.4406Z" fill="black"/>
<path d="M16.8221 13.4686V12.4426C16.8554 12.3126 16.9661 12.1976 17.0491 12.1759V11.2123C16.9238 11.2123 16.8621 11.3759 16.8621 11.3759L16.6484 12.3166V13.4609L16.8221 13.4686Z" fill="white"/>
<path d="M16.8467 13.494L16.625 13.484V12.3114L16.8387 11.3707C16.8423 11.3604 16.9087 11.1884 17.049 11.1884H17.073V12.1927L17.0553 12.1977C16.982 12.218 16.8783 12.3247 16.846 12.446L16.8467 13.494ZM16.673 13.438L16.7987 13.4437V12.4367C16.832 12.3057 16.9387 12.1917 17.0247 12.1574V11.239C16.933 11.2584 16.8847 11.383 16.8843 11.3847L16.672 12.318L16.673 13.438Z" fill="black"/>
<path d="M16.9554 13.7307C16.8691 13.6917 16.7431 13.5847 16.7431 13.4774V12.2001L16.8024 12.0947H14.6261L14.7111 12.2001V13.4774C14.7111 13.5847 14.6244 13.6917 14.5381 13.7307H16.9554Z" fill="white"/>
<path d="M16.9557 13.755H14.5383L14.5283 13.709C14.605 13.6757 14.6873 13.5757 14.6873 13.4773V12.2083L14.5763 12.0707H16.843L16.767 12.2063V13.4773C16.767 13.57 16.882 13.6713 16.9653 13.709L16.9557 13.755ZM14.6187 13.7067H16.867C16.791 13.6513 16.718 13.566 16.718 13.4773V12.1937L16.7603 12.1187H14.6767L14.7353 12.1917V13.4773C14.7329 13.5216 14.7213 13.5649 14.7012 13.6044C14.6812 13.6438 14.653 13.6787 14.6187 13.7067Z" fill="black"/>
<path d="M14.9766 13.7307C15.0632 13.6917 15.1892 13.5847 15.1892 13.4774V12.2624L15.0082 12.0957H16.4876L16.3066 12.2624V13.4774C16.3066 13.5847 16.4326 13.6917 16.5192 13.7307H14.9766Z" fill="white"/>
<path d="M16.5196 13.755H14.9769L14.9672 13.709C15.0502 13.6713 15.1672 13.57 15.1672 13.4773V12.273L14.9492 12.0703H16.5509L16.3326 12.2726V13.477C16.3326 13.5696 16.4479 13.671 16.5309 13.7086L16.5196 13.755ZM15.0646 13.7066H16.4312C16.3549 13.6513 16.2819 13.566 16.2819 13.4773V12.252L16.4259 12.1186H15.0696L15.2136 12.252V13.4773C15.2136 13.5666 15.1406 13.6513 15.0646 13.7066Z" fill="black"/>
<path d="M15.1846 13.7306C15.2709 13.6916 15.3969 13.5846 15.3969 13.4773V12.3789L15.2786 12.2123H16.2186L16.0999 12.3789V13.4773C16.0999 13.5846 16.2259 13.6916 16.3126 13.7306H15.1846Z" fill="white"/>
<path d="M16.3128 13.755H15.1848L15.1748 13.709C15.2581 13.6713 15.3731 13.57 15.3731 13.4773V12.3866L15.2325 12.1866H16.2658L16.1248 12.3866V13.4773C16.1248 13.57 16.2401 13.6713 16.3231 13.709L16.3128 13.755ZM15.2721 13.7066H16.2251C16.1491 13.6513 16.0761 13.566 16.0761 13.4773V12.3713L16.1725 12.235H15.3251L15.4215 12.3713V13.4773C15.4215 13.5666 15.3481 13.6513 15.2721 13.7066Z" fill="black"/>
<path d="M15.9734 12.2113H15.5244V13.731H15.9734V12.2113Z" fill="white"/>
<path d="M15.9973 13.755H15.5V12.1884H15.9973V13.755ZM15.548 13.707H15.948V12.2354H15.548V13.707Z" fill="black"/>
<path d="M16.5835 12.6353H16.4045V13.46H16.5835V12.6353ZM15.0462 12.6353H14.8662V13.46H15.0455L15.0462 12.6353ZM16.7365 11.2443H16.5205V12.0897H16.7365V11.2443ZM16.7365 11.0853H16.5219V11.2423H16.7365V11.0853Z" fill="white"/>
<path d="M16.5841 13.4839H16.4051L16.3808 13.4599V12.6353L16.4051 12.6113H16.5841L16.6081 12.6353V13.4599L16.5841 13.4839ZM16.4291 13.4359H16.5601V12.6593H16.4291V13.4359ZM15.0468 13.4839H14.8668L14.8428 13.4599V12.6353L14.8668 12.6113H15.0461L15.0701 12.6353V13.4599L15.0468 13.4839ZM14.8914 13.4359H15.0228V12.6593H14.8914V13.4359ZM16.7371 12.1136H16.5211L16.4971 12.0896V11.0853L16.5211 11.0613H16.7358L16.7601 11.0853V12.0896L16.7371 12.1136ZM16.5451 12.0666H16.7118V11.2683H16.5451V12.0666ZM16.5451 11.2193H16.7118V11.1103H16.5451V11.2193Z" fill="black"/>
<path d="M14.9603 11.4264H14.6523V12.0791H14.9603V11.4264Z" fill="white"/>
<path d="M14.961 12.1051H14.653L14.627 12.0791V11.4264L14.653 11.4004H14.961L14.9866 11.4264V12.0791L14.961 12.1051ZM14.6786 12.0534H14.9336V11.4534H14.6773L14.6786 12.0534Z" fill="black"/>
<path d="M16.5242 12.0834V10.6364C16.4625 10.6364 16.4532 10.8484 16.3115 10.8484C16.2382 10.8484 16.2449 10.7607 16.2872 10.689C16.3239 10.6257 16.3692 10.538 16.3075 10.375C16.2655 10.4997 16.1519 10.5394 16.1742 10.461C16.2102 10.3277 16.3139 10.3047 16.2362 10.0944C16.2092 10.2684 16.0975 10.261 16.1245 10.161C16.1552 10.047 16.2182 10 16.1405 9.83938C16.0969 10.022 16.0379 10.0114 16.0379 9.89805C16.0379 9.73138 16.0442 9.55005 15.8279 9.48338C15.8279 9.48338 15.8152 9.32971 15.7372 9.32971C15.6592 9.32971 15.6465 9.48338 15.6465 9.48338C15.4299 9.55005 15.4362 9.73071 15.4362 9.89805C15.4362 10.0114 15.3772 10.022 15.3339 9.83971C15.2559 10.0004 15.3189 10.047 15.3495 10.161C15.3769 10.261 15.2649 10.2697 15.2379 10.0944C15.1602 10.303 15.2639 10.325 15.2999 10.461C15.3209 10.5394 15.2075 10.4997 15.1665 10.375C15.1052 10.538 15.1505 10.6257 15.1869 10.689C15.2282 10.7607 15.2362 10.8484 15.1625 10.8484C15.0212 10.8484 15.0115 10.6364 14.9502 10.6364V12.0834H16.5242ZM16.8625 10.9904V12.0944H16.7369V10.9877C16.7556 10.9753 16.7776 10.9689 16.8001 10.9693C16.8226 10.9698 16.8444 10.9772 16.8625 10.9904Z" fill="white"/>
<path d="M16.8868 12.1183H16.7132V10.9727L16.7265 10.966C16.7492 10.9515 16.7759 10.9443 16.8028 10.9452C16.8298 10.9462 16.8558 10.9553 16.8775 10.9713L16.8868 10.9787V12.1183ZM16.7612 12.0703H16.8388V11.0037C16.8269 10.9973 16.8135 10.994 16.8 10.994C16.7865 10.994 16.7731 10.9973 16.7612 11.0037V12.0703ZM14.9238 12.1073V10.6123H14.9478C14.9872 10.6123 15.0068 10.653 15.0298 10.7C15.0578 10.7583 15.0902 10.8243 15.1602 10.8243C15.1798 10.8243 15.1848 10.816 15.1865 10.8127C15.1988 10.7917 15.1892 10.746 15.1638 10.701C15.1305 10.643 15.0742 10.5457 15.1418 10.3677L15.1655 10.3047L15.1872 10.3683C15.2115 10.4413 15.2595 10.4757 15.2775 10.4783C15.2774 10.4749 15.2768 10.4716 15.2758 10.4683C15.2656 10.4343 15.2508 10.4017 15.2318 10.3717C15.1935 10.305 15.1572 10.2423 15.2145 10.0887L15.2478 10.0027L15.2622 10.0933C15.2745 10.1737 15.3048 10.2043 15.3192 10.2093C15.3238 10.2093 15.3248 10.2093 15.3255 10.2093C15.3262 10.2093 15.3328 10.192 15.3255 10.1687C15.3188 10.1447 15.3106 10.1211 15.3012 10.098C15.2725 10.025 15.2478 9.96199 15.3115 9.83133L15.3408 9.77099L15.3565 9.83766C15.3762 9.91999 15.3955 9.94799 15.4035 9.95666C15.4099 9.93906 15.4126 9.92035 15.4115 9.90166V9.88766C15.4115 9.72566 15.4115 9.54266 15.6235 9.46899C15.6298 9.42399 15.6535 9.30933 15.7365 9.30933C15.8195 9.30933 15.8432 9.42399 15.8492 9.46899C16.0615 9.54266 16.0615 9.72566 16.0612 9.88766V9.89999C16.0602 9.91867 16.063 9.93735 16.0692 9.95499C16.0775 9.94633 16.0968 9.91833 16.1165 9.83599L16.1322 9.76933L16.1615 9.82999C16.2252 9.96133 16.2002 10.0243 16.1715 10.0967C16.1622 10.1198 16.1541 10.1434 16.1472 10.1673C16.1408 10.1907 16.1445 10.2043 16.1472 10.208C16.1498 10.2117 16.1488 10.208 16.1535 10.208C16.1678 10.2033 16.1982 10.1727 16.2105 10.0923L16.2245 10.0017L16.2578 10.0877C16.3148 10.2413 16.2788 10.304 16.2402 10.3703C16.2212 10.4002 16.2065 10.4327 16.1965 10.4667C16.196 10.47 16.196 10.4733 16.1965 10.4767C16.2142 10.474 16.2632 10.4393 16.2868 10.3667L16.3085 10.303L16.3322 10.3657C16.3945 10.5323 16.3535 10.6253 16.3102 10.699C16.2848 10.7427 16.2752 10.7897 16.2872 10.8107C16.2892 10.814 16.2938 10.8223 16.3135 10.8223C16.3838 10.8223 16.4158 10.7557 16.4442 10.6977C16.4668 10.6507 16.4865 10.6103 16.5262 10.6103H16.5502V12.1053H14.9238V12.1073ZM14.9718 10.6913V12.058H16.4998V10.6913C16.4945 10.7013 16.4892 10.712 16.4852 10.7207C16.4542 10.7847 16.4115 10.8723 16.3112 10.8723C16.2979 10.873 16.2846 10.87 16.2729 10.8637C16.2612 10.8574 16.2513 10.8481 16.2445 10.8367C16.2188 10.7923 16.2392 10.725 16.2672 10.677C16.29 10.6427 16.3051 10.6038 16.3115 10.563C16.3178 10.5223 16.3152 10.4806 16.3038 10.441C16.2665 10.5017 16.2132 10.534 16.1775 10.5233C16.1572 10.517 16.1395 10.496 16.1505 10.4567C16.1615 10.4183 16.1778 10.3817 16.1992 10.348C16.2162 10.3248 16.2282 10.2982 16.2344 10.2701C16.2407 10.242 16.2411 10.2129 16.2355 10.1847C16.23 10.2002 16.2214 10.2144 16.2102 10.2265C16.199 10.2386 16.1855 10.2483 16.1705 10.255C16.1614 10.2586 16.1514 10.2596 16.1417 10.2578C16.1321 10.256 16.1231 10.2516 16.1158 10.245C16.1055 10.233 16.0987 10.2185 16.096 10.2029C16.0934 10.1873 16.095 10.1714 16.1008 10.1567C16.1081 10.1309 16.1167 10.1055 16.1268 10.0807C16.1541 10.0295 16.1601 9.96958 16.1435 9.91399C16.1205 9.97799 16.0932 10.0083 16.0628 10.0047C16.0442 10.0027 16.0132 9.98599 16.0132 9.89866V9.88466C16.0132 9.72099 16.0132 9.56666 15.8198 9.50666L15.8045 9.50199V9.48599C15.8008 9.44299 15.7798 9.35433 15.7378 9.35433C15.6958 9.35433 15.6745 9.44299 15.6712 9.48599V9.50199L15.6558 9.50666C15.4622 9.56666 15.4625 9.72099 15.4625 9.88466V9.89999C15.4625 9.98733 15.4312 10.004 15.4128 10.006C15.3825 10.01 15.3548 9.97933 15.3322 9.91533C15.3153 9.97085 15.3212 10.0308 15.3485 10.082C15.3586 10.1068 15.3673 10.1322 15.3745 10.158C15.3803 10.1727 15.382 10.1886 15.3795 10.2042C15.3769 10.2198 15.3701 10.2343 15.3598 10.2463C15.3525 10.2529 15.3435 10.2574 15.3338 10.2592C15.3241 10.2611 15.3141 10.2602 15.3048 10.2567C15.2899 10.2498 15.2764 10.2401 15.2652 10.228C15.2541 10.216 15.2454 10.2018 15.2398 10.1863C15.2343 10.2146 15.2347 10.2436 15.241 10.2717C15.2474 10.2997 15.2594 10.3262 15.2765 10.3493C15.2975 10.3832 15.3139 10.4197 15.3252 10.458C15.3362 10.499 15.3182 10.5203 15.2978 10.5247C15.2628 10.5353 15.2092 10.503 15.1718 10.4423C15.1604 10.482 15.1577 10.5236 15.164 10.5644C15.1704 10.6052 15.1856 10.644 15.2085 10.6783C15.2362 10.7267 15.2568 10.7937 15.2312 10.838C15.2243 10.8494 15.2144 10.8587 15.2027 10.8649C15.191 10.8712 15.1778 10.8742 15.1645 10.8737C15.0645 10.8737 15.0218 10.786 14.9908 10.722C14.9825 10.7123 14.9772 10.7 14.9718 10.6913Z" fill="black"/>
<path d="M16.8586 11.7046C16.7029 11.7843 16.5489 11.8763 16.5099 12.0943H16.8586V11.7046ZM14.6996 11.3743V12.0946H14.5996V11.3726C14.6152 11.3648 14.6324 11.3608 14.6498 11.3611C14.6672 11.3614 14.6843 11.3659 14.6996 11.3743Z" fill="white"/>
<path d="M14.7249 12.1187H14.5752V11.3574L14.5889 11.3507C14.6086 11.3409 14.6304 11.3362 14.6524 11.3369C14.6743 11.3376 14.6958 11.3437 14.7149 11.3547L14.7249 11.362V12.1187ZM14.6232 12.0707H14.6769V11.3887C14.6594 11.383 14.6406 11.383 14.6232 11.3887V12.0707ZM16.8832 12.1184H16.4832L16.4882 12.0904C16.5285 11.8647 16.6882 11.7657 16.8495 11.6834L16.8845 11.6657L16.8832 12.1184ZM16.5399 12.0704H16.8352V11.7444C16.7002 11.816 16.5809 11.9 16.5399 12.0704Z" fill="black"/>
<path d="M14.5996 11.7C14.7553 11.7793 14.9093 11.8716 14.9483 12.0896H14.5996V11.7Z" fill="white"/>
<path d="M14.9762 12.113H14.5762V11.66L14.6112 11.678C14.7718 11.76 14.9322 11.859 14.9725 12.0847L14.9762 12.113ZM14.6228 12.0667H14.9182C14.8772 11.897 14.7578 11.8124 14.6228 11.7407V12.0667Z" fill="black"/>
<path d="M15.6278 10.0167L15.5371 9.94071V9.84304C15.5526 9.84409 15.5675 9.84888 15.5807 9.85702C15.5939 9.86515 15.6049 9.87637 15.6128 9.88971C15.6233 9.85793 15.6401 9.82858 15.6621 9.80339C15.6841 9.7782 15.711 9.75768 15.7411 9.74304C15.771 9.75728 15.7978 9.7774 15.8198 9.8022C15.8418 9.82699 15.8585 9.85596 15.8691 9.88738C15.8771 9.87429 15.8881 9.86339 15.9013 9.85565C15.9146 9.84791 15.9295 9.84358 15.9448 9.84304V9.94071L15.8541 10.0167H15.6278Z" fill="white"/>
<path d="M15.8624 10.0406H15.6187L15.5127 9.95161V9.81628L15.539 9.81894C15.5636 9.82002 15.5871 9.82942 15.6057 9.84561C15.6329 9.79173 15.6769 9.74819 15.731 9.72161L15.742 9.71594L15.7527 9.72161C15.8066 9.74763 15.8506 9.79044 15.878 9.84361C15.897 9.82832 15.9204 9.81966 15.9447 9.81894L15.971 9.81628V9.95161L15.8624 10.0406ZM15.636 9.99261H15.845L15.9204 9.92928V9.87261C15.9068 9.87914 15.8952 9.88929 15.887 9.90194L15.8594 9.93828L15.845 9.89461C15.8274 9.84115 15.7898 9.79659 15.74 9.77028C15.69 9.79745 15.6523 9.84279 15.6347 9.89694L15.6204 9.94061L15.5927 9.90428C15.5842 9.89145 15.5728 9.88083 15.5594 9.87328V9.92928L15.636 9.99261Z" fill="black"/>
<path d="M15.5791 10.2614L15.5371 10.17V10.043C15.5527 10.0442 15.5677 10.0491 15.5809 10.0574C15.5941 10.0657 15.605 10.0772 15.6128 10.0907C15.6232 10.0586 15.6399 10.0289 15.6619 10.0034C15.6839 9.97784 15.7109 9.95698 15.7411 9.94202C15.7712 9.95651 15.7981 9.97695 15.8201 10.0021C15.8421 10.0272 15.8587 10.0566 15.8691 10.0883C15.877 10.0751 15.8881 10.064 15.9014 10.0561C15.9147 10.0482 15.9297 10.0437 15.9451 10.043V10.17L15.9028 10.2614H15.5791Z" fill="white"/>
<path d="M15.9177 10.2853H15.5634L15.5127 10.17V10.0163L15.539 10.019C15.5636 10.0204 15.587 10.0299 15.6057 10.046C15.6328 9.99184 15.6766 9.94787 15.7307 9.92067L15.7417 9.91467L15.7527 9.92067C15.8065 9.9473 15.8504 9.99054 15.8777 10.044C15.8966 10.0288 15.9201 10.0201 15.9444 10.0193L15.971 10.0167L15.9687 10.1803L15.9177 10.2853ZM15.594 10.2373H15.887L15.9204 10.165V10.073C15.9068 10.0797 15.8952 10.0899 15.887 10.1027L15.859 10.1397L15.845 10.0957C15.8275 10.0416 15.7898 9.99633 15.7397 9.96934C15.6896 9.99718 15.6519 10.0431 15.6344 10.0977L15.6204 10.142L15.5924 10.105C15.5838 10.0921 15.5724 10.0814 15.559 10.0737V10.1647L15.594 10.2373Z" fill="black"/>
<path d="M15.5728 10.5927L15.4395 10.4284V10.2667C15.4888 10.272 15.5155 10.2917 15.5518 10.347C15.5828 10.236 15.6518 10.2117 15.7421 10.1577C15.8335 10.2117 15.9015 10.232 15.9325 10.343C15.9688 10.2877 15.9958 10.2724 16.0451 10.2667V10.4287L15.9118 10.593L15.5728 10.5927Z" fill="white"/>
<path d="M15.9204 10.6167H15.5614L15.4141 10.4371V10.2394L15.4407 10.2424C15.4606 10.2438 15.4799 10.2494 15.4976 10.2587C15.5152 10.268 15.5307 10.2808 15.5431 10.2964C15.5764 10.2231 15.6317 10.1921 15.6941 10.1567L15.7274 10.1367L15.7394 10.1294L15.7517 10.1367C15.7657 10.1451 15.7794 10.1527 15.7924 10.1597C15.8521 10.1931 15.9051 10.2224 15.9374 10.2931C15.9502 10.2782 15.9658 10.266 15.9834 10.2573C16.001 10.2486 16.0201 10.2435 16.0397 10.2424L16.0664 10.2394V10.4371L15.9204 10.6167ZM15.5841 10.5687H15.8977L16.0197 10.4201V10.2951C15.9898 10.3057 15.9652 10.3276 15.9511 10.3561L15.9221 10.4001L15.9081 10.3491C15.8847 10.2651 15.8391 10.2401 15.7704 10.2017L15.7407 10.1851L15.7177 10.1984C15.6457 10.2391 15.5981 10.2651 15.5737 10.3531L15.5594 10.4037L15.5304 10.3597C15.5158 10.3311 15.4916 10.3084 15.4621 10.2957V10.4201L15.5841 10.5687Z" fill="black"/>
<path d="M15.5329 10.9184C15.5329 10.9184 15.3759 10.7814 15.3662 10.7061V10.5334C15.3991 10.5343 15.4313 10.5433 15.4599 10.5598C15.4884 10.5763 15.5123 10.5996 15.5295 10.6277C15.5679 10.4841 15.6275 10.4441 15.7402 10.3744C15.8529 10.4441 15.9125 10.4841 15.9509 10.6277C15.9682 10.5998 15.9922 10.5765 16.0207 10.5601C16.0492 10.5436 16.0813 10.5345 16.1142 10.5334V10.7067C16.0945 10.7821 15.9475 10.9191 15.9475 10.9191L15.5329 10.9184Z" fill="white"/>
<path d="M15.5241 10.9424L15.5171 10.9364C15.5004 10.9217 15.3531 10.791 15.3428 10.709V10.5057L15.3698 10.509C15.4266 10.5118 15.4804 10.5355 15.5208 10.5757C15.5614 10.461 15.6231 10.4184 15.7284 10.3534L15.7408 10.3457L15.7534 10.3534C15.8584 10.42 15.9201 10.461 15.9608 10.5757C16.0012 10.5355 16.0551 10.5117 16.1121 10.509L16.1388 10.5057V10.712C16.1178 10.7917 15.9811 10.9214 15.9654 10.9357L15.9588 10.9424H15.5241ZM15.3908 10.5607V10.706C15.3964 10.7497 15.4841 10.8424 15.5424 10.8944H15.9388C15.9818 10.8534 16.0744 10.7564 16.0908 10.7027V10.5607C16.0662 10.5639 16.0427 10.5727 16.0221 10.5864C16.0015 10.6001 15.9843 10.6183 15.9718 10.6397L15.9424 10.686L15.9284 10.633C15.8951 10.5057 15.8454 10.4664 15.7408 10.402C15.6364 10.467 15.5874 10.5057 15.5534 10.633L15.5391 10.686L15.5098 10.6397C15.4973 10.6183 15.48 10.6 15.4593 10.5863C15.4386 10.5726 15.4151 10.5638 15.3904 10.5607H15.3908Z" fill="black"/>
<path d="M15.4671 11.5193C15.4671 11.5193 15.2521 11.2813 15.2471 11.1887V10.9183C15.3277 10.9293 15.4037 10.985 15.4631 11.0957C15.5137 10.872 15.5927 10.716 15.7417 10.6077C15.8907 10.716 15.9697 10.872 16.0201 11.0957C16.0797 10.9847 16.1557 10.929 16.2364 10.918V11.1883C16.2211 11.2813 16.0164 11.5193 16.0164 11.5193H15.4671Z" fill="white"/>
<path d="M15.456 11.5433L15.4487 11.5353C15.426 11.5103 15.2277 11.2883 15.2227 11.1897V10.8897L15.25 10.8933C15.2918 10.9008 15.3316 10.9171 15.3666 10.9411C15.4017 10.9652 15.4312 10.9964 15.4533 11.0327C15.509 10.8203 15.5927 10.685 15.7273 10.587L15.7413 10.5767L15.7553 10.587C15.8887 10.685 15.9737 10.8203 16.0293 11.0327C16.0514 10.9964 16.081 10.9652 16.116 10.9411C16.1511 10.9171 16.1908 10.9008 16.2327 10.8933L16.26 10.8897V11.1873C16.2437 11.2873 16.0557 11.509 16.034 11.534L16.027 11.5423L15.456 11.5433ZM15.2703 10.9477V11.1887C15.2737 11.247 15.396 11.4043 15.4773 11.4953H16.0043C16.0647 11.4243 16.2007 11.2523 16.212 11.1847V10.9477C16.1453 10.9667 16.087 11.0213 16.041 11.107L16.0107 11.1637L15.9963 11.101C15.9457 10.876 15.869 10.736 15.7413 10.6377C15.614 10.736 15.537 10.876 15.4863 11.101L15.472 11.1637L15.4417 11.107C15.3953 11.0213 15.337 10.9667 15.2703 10.9477Z" fill="black"/>
<path d="M15.4671 11.8747C15.4671 11.8747 15.2834 11.6877 15.2471 11.6063V11.3363C15.3277 11.3473 15.4037 11.403 15.4631 11.5137C15.5137 11.29 15.5927 11.162 15.7417 11.0533C15.8907 11.162 15.9697 11.29 16.0201 11.5137C16.0797 11.4027 16.1557 11.347 16.2364 11.336V11.6063C16.1897 11.6877 16.0164 11.8747 16.0164 11.8747H15.4671Z" fill="white"/>
<path d="M15.4557 11.9L15.4487 11.893C15.441 11.8854 15.2613 11.7017 15.224 11.6177L15.2217 11.6077V11.31L15.249 11.3137C15.2908 11.3212 15.3306 11.3375 15.3657 11.3615C15.4007 11.3855 15.4303 11.4167 15.4523 11.453C15.5043 11.259 15.584 11.139 15.7263 11.0354L15.7403 11.025L15.7543 11.0354C15.8967 11.139 15.9763 11.259 16.0283 11.4534C16.0504 11.417 16.0799 11.3857 16.115 11.3617C16.15 11.3376 16.1898 11.3212 16.2317 11.3137L16.259 11.31V11.6144L16.2557 11.6197C16.2083 11.7024 16.0397 11.8847 16.0327 11.8924L16.0253 11.9H15.4557ZM15.2697 11.6C15.3007 11.6627 15.4223 11.7947 15.476 11.8497H16.0043C16.0787 11.7708 16.1477 11.687 16.211 11.599V11.3657C16.1443 11.3847 16.086 11.4394 16.04 11.525L16.0097 11.582L15.9953 11.519C15.9483 11.3107 15.8763 11.1857 15.7403 11.0834C15.6047 11.1867 15.5323 11.3107 15.4853 11.519L15.471 11.5817L15.4407 11.525C15.3947 11.4394 15.336 11.385 15.2697 11.3657V11.6Z" fill="black"/>
<path d="M15.3916 12.0814C15.4453 11.8481 15.4916 11.6747 15.7499 11.4994C16.0083 11.6747 16.0543 11.8481 16.1079 12.0814H15.3916Z" fill="white"/>
<path d="M16.139 12.1053H15.3623L15.369 12.076C15.4196 11.8557 15.4633 11.6653 15.7356 11.4793L15.7493 11.4703L15.7626 11.4793C16.0363 11.6653 16.0803 11.8557 16.1293 12.076L16.139 12.1053ZM15.4226 12.0573H16.0786C16.0263 11.835 15.9746 11.685 15.7506 11.5283C15.5263 11.685 15.475 11.835 15.4226 12.0573Z" fill="black"/>
<path d="M15.2588 12.2113V11.8733C15.3761 11.9193 15.4821 11.9873 15.5215 12.063C15.5651 11.8753 15.6491 11.7926 15.7548 11.679C15.8595 11.7926 15.9298 11.8753 15.9735 12.063C16.0125 11.9873 16.1185 11.9193 16.2358 11.8733V12.2113H15.2588Z" fill="white"/>
<path d="M16.26 12.2353H15.2354V11.838L15.2687 11.851C15.361 11.883 15.4445 11.9363 15.5124 12.0067C15.5577 11.8563 15.6337 11.7733 15.72 11.6813L15.755 11.6437L15.7727 11.6627C15.8727 11.7707 15.9394 11.8517 15.9837 12.0063C16.0517 11.9363 16.1351 11.8831 16.2274 11.851L16.2607 11.838L16.26 12.2353ZM15.2834 12.1873H16.2117V11.909C16.1044 11.956 16.0244 12.0163 15.9947 12.0757L15.9647 12.1337L15.95 12.07C15.91 11.8993 15.85 11.8197 15.7547 11.716C15.6597 11.8183 15.585 11.8993 15.5454 12.07L15.5307 12.1337L15.5007 12.0757C15.471 12.0183 15.391 11.9577 15.2834 11.909V12.1873Z" fill="black"/>
<path d="M6.7023 13.7173V14.026H17.297V13.7173H6.7023ZM6.51064 14.0286V14.4313H17.4886V14.0286H6.51064ZM17.4886 14.4313L6.51064 14.4333L6.18964 14.4303V14.9613H17.8096V14.4313H17.4886ZM5.8663 14.9666V15.5923H18.133V14.9666H5.8663ZM18.133 15.5923H5.8663H5.54297V16.2166H18.4563V15.5913L18.133 15.5923Z" fill="white"/>
<path d="M18.4805 16.2407H5.51953V15.5667H5.84286V14.9417H6.16653V14.4084L6.48753 14.4114V14.0047H6.6792V13.6934H17.3212V14.0047H17.5129V14.4074H17.8332V14.9407H18.1565V15.5667H18.4799L18.4805 16.2407ZM5.56653 16.1927H18.4332V15.6154H5.56653V16.1927ZM5.88986 15.5674H18.1092V14.99H5.89053L5.88986 15.5674ZM6.21286 14.9384H17.7859V14.4554H17.4889L6.51086 14.4584L6.21386 14.4557L6.21286 14.9384ZM6.53386 14.4074H17.4665V14.0527H6.53486L6.53386 14.4074ZM6.72553 14.002H17.2732V13.7414H6.72653L6.72553 14.002Z" fill="black"/>
<path d="M7.85254 13.7186H8.65254V16.2156H7.85254V13.7186Z" fill="white"/>
<path d="M8.67948 16.2416H7.82715V13.6926H8.67948V16.2416ZM7.87948 16.1893H8.62715V13.745H7.87915L7.87948 16.1893Z" fill="black"/>
<path d="M8.0293 13.7186H8.47496V16.2156H8.0293V13.7186Z" fill="white"/>
<path d="M8.50191 16.2416H8.00391V13.6926H8.50191V16.2416ZM8.05591 16.1896H8.44957V13.745H8.05591V16.1896Z" fill="black"/>
<path d="M11.5859 13.7186H12.3859V16.2156H11.5859V13.7186Z" fill="white"/>
<path d="M12.4122 16.2416H11.5596V13.6926H12.4122V16.2416ZM11.6122 16.1893H12.3602V13.745H11.6119L11.6122 16.1893Z" fill="black"/>
<path d="M11.7686 13.7186H12.2146V16.2156H11.7686V13.7186Z" fill="white"/>
<path d="M12.2402 16.2416H11.7422V13.6926H12.2402V16.2416ZM11.7942 16.1896H12.1879V13.745H11.7942V16.1896Z" fill="black"/>
<path d="M15.3418 13.7186H16.1418V16.2156H15.3418V13.7186Z" fill="white"/>
<path d="M16.1664 16.2416H15.3154V13.6926H16.1664V16.2416ZM15.3664 16.1893H16.1144V13.745H15.3664V16.1893Z" fill="black"/>
<path d="M15.5186 13.7186H15.9646V16.2156H15.5186V13.7186Z" fill="white"/>
<path d="M15.9902 16.2416H15.4922V13.6926H15.9902V16.2416ZM15.5442 16.1896H15.9379V13.745H15.5442V16.1896Z" fill="black"/>
<path d="M12.1997 15.9263H11.7704V15.8783H12.1997V15.9263ZM15.9717 15.9263H15.5104V15.8783H15.9727L15.9717 15.9263ZM8.48271 15.9263H8.02138V15.8783H8.48371L8.48271 15.9263ZM12.1997 15.6137H11.7704V15.5667H12.1997V15.6137ZM15.9717 15.6137H15.5104V15.5667H15.9727L15.9717 15.6137ZM8.48271 15.6137H8.02138V15.5667H8.48371L8.48271 15.6137ZM12.1997 15.3H11.7704V15.252H12.1997V15.3ZM15.9717 15.3H15.5104V15.252H15.9727L15.9717 15.3ZM8.48271 15.3H8.02138V15.252H8.48371L8.48271 15.3ZM15.9717 14.9877H15.5104V14.9397H15.9727L15.9717 14.9877ZM12.1997 14.9877H11.7704V14.9397H12.1997V14.9877ZM8.48271 14.9877H8.02138V14.9397H8.48371L8.48271 14.9877ZM15.9717 14.675H15.5104V14.627H15.9727L15.9717 14.675ZM8.48271 14.675H8.02138V14.627H8.48371L8.48271 14.675ZM12.1997 14.675H11.7704V14.627H12.1997V14.675ZM15.9717 14.3627H15.5104V14.3147H15.9727L15.9717 14.3627ZM8.48271 14.3627H8.02138V14.3147H8.48371L8.48271 14.3627ZM12.1997 14.3627H11.7704V14.3147H12.1997V14.3627ZM15.9717 14.0503H15.5104V14.0023H15.9727L15.9717 14.0503ZM8.48271 14.0503H8.02138V14.0023H8.48371L8.48271 14.0503ZM12.1997 14.0503H11.7704V14.0023H12.1997V14.0503ZM16.833 13.4887H7.17871V13.4407H16.833V13.4887Z" fill="black"/>
</g>
</svg>
